G04 (created by PCBNEW-RS274X (2012-01-19 BZR 3256)-stable) date 5/8/2013 11:12:38 PM*
G01*
G70*
G90*
%MOIN*%
G04 Gerber Fmt 3.4, Leading zero omitted, Abs format*
%FSLAX34Y34*%
G04 APERTURE LIST*
%ADD10C,0.000100*%
%ADD11C,0.015000*%
%ADD12C,0.012000*%
%ADD13R,0.065000X0.065000*%
%ADD14C,0.070000*%
%ADD15C,0.160000*%
%ADD16R,0.070000X0.070000*%
%ADD17R,0.060000X0.060000*%
%ADD18C,0.060000*%
%ADD19C,0.032000*%
%ADD20C,0.010000*%
%ADD21C,0.008000*%
G04 APERTURE END LIST*
G54D10*
G54D11*
X73000Y-58200D02*
X72600Y-58200D01*
X73000Y-57800D02*
X73000Y-58200D01*
X34000Y-57600D02*
X34000Y-58200D01*
G54D12*
X40224Y-26757D02*
X39424Y-26757D01*
X40186Y-26757D02*
X40224Y-26700D01*
X40224Y-26586D01*
X40186Y-26528D01*
X40148Y-26500D01*
X40071Y-26471D01*
X39843Y-26471D01*
X39767Y-26500D01*
X39729Y-26528D01*
X39690Y-26586D01*
X39690Y-26700D01*
X39729Y-26757D01*
X40224Y-27300D02*
X39805Y-27300D01*
X39729Y-27271D01*
X39690Y-27214D01*
X39690Y-27100D01*
X39729Y-27043D01*
X40186Y-27300D02*
X40224Y-27243D01*
X40224Y-27100D01*
X40186Y-27043D01*
X40110Y-27014D01*
X40033Y-27014D01*
X39957Y-27043D01*
X39919Y-27100D01*
X39919Y-27243D01*
X39881Y-27300D01*
X40186Y-27557D02*
X40224Y-27614D01*
X40224Y-27729D01*
X40186Y-27786D01*
X40110Y-27814D01*
X40071Y-27814D01*
X39995Y-27786D01*
X39957Y-27729D01*
X39957Y-27643D01*
X39919Y-27586D01*
X39843Y-27557D01*
X39805Y-27557D01*
X39729Y-27586D01*
X39690Y-27643D01*
X39690Y-27729D01*
X39729Y-27786D01*
X40224Y-28329D02*
X39424Y-28329D01*
X40186Y-28329D02*
X40224Y-28272D01*
X40224Y-28158D01*
X40186Y-28100D01*
X40148Y-28072D01*
X40071Y-28043D01*
X39843Y-28043D01*
X39767Y-28072D01*
X39729Y-28100D01*
X39690Y-28158D01*
X39690Y-28272D01*
X39729Y-28329D01*
X40224Y-28615D02*
X39424Y-28615D01*
X39729Y-28615D02*
X39690Y-28672D01*
X39690Y-28786D01*
X39729Y-28843D01*
X39767Y-28872D01*
X39843Y-28901D01*
X40071Y-28901D01*
X40148Y-28872D01*
X40186Y-28843D01*
X40224Y-28786D01*
X40224Y-28672D01*
X40186Y-28615D01*
X40224Y-29244D02*
X40186Y-29186D01*
X40148Y-29158D01*
X40071Y-29129D01*
X39843Y-29129D01*
X39767Y-29158D01*
X39729Y-29186D01*
X39690Y-29244D01*
X39690Y-29329D01*
X39729Y-29386D01*
X39767Y-29415D01*
X39843Y-29444D01*
X40071Y-29444D01*
X40148Y-29415D01*
X40186Y-29386D01*
X40224Y-29329D01*
X40224Y-29244D01*
X40224Y-29787D02*
X40186Y-29729D01*
X40148Y-29701D01*
X40071Y-29672D01*
X39843Y-29672D01*
X39767Y-29701D01*
X39729Y-29729D01*
X39690Y-29787D01*
X39690Y-29872D01*
X39729Y-29929D01*
X39767Y-29958D01*
X39843Y-29987D01*
X40071Y-29987D01*
X40148Y-29958D01*
X40186Y-29929D01*
X40224Y-29872D01*
X40224Y-29787D01*
X39690Y-30158D02*
X39690Y-30387D01*
X39424Y-30244D02*
X40110Y-30244D01*
X40186Y-30272D01*
X40224Y-30330D01*
X40224Y-30387D01*
X39024Y-26787D02*
X38490Y-26787D01*
X38643Y-26787D02*
X38567Y-26815D01*
X38529Y-26844D01*
X38490Y-26901D01*
X38490Y-26958D01*
X38986Y-27386D02*
X39024Y-27329D01*
X39024Y-27215D01*
X38986Y-27158D01*
X38910Y-27129D01*
X38605Y-27129D01*
X38529Y-27158D01*
X38490Y-27215D01*
X38490Y-27329D01*
X38529Y-27386D01*
X38605Y-27415D01*
X38681Y-27415D01*
X38757Y-27129D01*
X38490Y-27615D02*
X39024Y-27758D01*
X38490Y-27900D01*
X38948Y-28129D02*
X38986Y-28157D01*
X39024Y-28129D01*
X38986Y-28100D01*
X38948Y-28129D01*
X39024Y-28129D01*
X38224Y-28986D02*
X38224Y-29043D01*
X38262Y-29100D01*
X38300Y-29129D01*
X38376Y-29158D01*
X38529Y-29186D01*
X38719Y-29186D01*
X38871Y-29158D01*
X38948Y-29129D01*
X38986Y-29100D01*
X39024Y-29043D01*
X39024Y-28986D01*
X38986Y-28929D01*
X38948Y-28900D01*
X38871Y-28872D01*
X38719Y-28843D01*
X38529Y-28843D01*
X38376Y-28872D01*
X38300Y-28900D01*
X38262Y-28929D01*
X38224Y-28986D01*
X38948Y-29443D02*
X38986Y-29471D01*
X39024Y-29443D01*
X38986Y-29414D01*
X38948Y-29443D01*
X39024Y-29443D01*
X38300Y-29700D02*
X38262Y-29729D01*
X38224Y-29786D01*
X38224Y-29929D01*
X38262Y-29986D01*
X38300Y-30015D01*
X38376Y-30043D01*
X38452Y-30043D01*
X38567Y-30015D01*
X39024Y-29672D01*
X39024Y-30043D01*
X55585Y-22405D02*
X55785Y-22405D01*
X55785Y-22824D02*
X55785Y-22024D01*
X55499Y-22024D01*
X54985Y-22824D02*
X55271Y-22824D01*
X55271Y-22024D01*
X54671Y-22443D02*
X54671Y-22824D01*
X54871Y-22024D02*
X54671Y-22443D01*
X54471Y-22024D01*
X54271Y-22824D02*
X54271Y-22024D01*
X53985Y-22824D02*
X53985Y-22024D01*
X53642Y-22824D01*
X53642Y-22024D01*
X53042Y-22062D02*
X53099Y-22024D01*
X53185Y-22024D01*
X53270Y-22062D01*
X53328Y-22138D01*
X53356Y-22214D01*
X53385Y-22367D01*
X53385Y-22481D01*
X53356Y-22633D01*
X53328Y-22710D01*
X53270Y-22786D01*
X53185Y-22824D01*
X53128Y-22824D01*
X53042Y-22786D01*
X53013Y-22748D01*
X53013Y-22481D01*
X53128Y-22481D01*
X52756Y-22519D02*
X52299Y-22519D01*
X51813Y-22405D02*
X52013Y-22405D01*
X52013Y-22824D02*
X52013Y-22024D01*
X51727Y-22024D01*
X51556Y-22024D02*
X51185Y-22024D01*
X51385Y-22329D01*
X51299Y-22329D01*
X51242Y-22367D01*
X51213Y-22405D01*
X51185Y-22481D01*
X51185Y-22671D01*
X51213Y-22748D01*
X51242Y-22786D01*
X51299Y-22824D01*
X51471Y-22824D01*
X51528Y-22786D01*
X51556Y-22748D01*
X55972Y-20590D02*
X55743Y-20590D01*
X55886Y-20324D02*
X55886Y-21010D01*
X55858Y-21086D01*
X55800Y-21124D01*
X55743Y-21124D01*
X55286Y-21124D02*
X55286Y-20705D01*
X55315Y-20629D01*
X55372Y-20590D01*
X55486Y-20590D01*
X55543Y-20629D01*
X55286Y-21086D02*
X55343Y-21124D01*
X55486Y-21124D01*
X55543Y-21086D01*
X55572Y-21010D01*
X55572Y-20933D01*
X55543Y-20857D01*
X55486Y-20819D01*
X55343Y-20819D01*
X55286Y-20781D01*
X54743Y-20590D02*
X54743Y-21124D01*
X55000Y-20590D02*
X55000Y-21010D01*
X54972Y-21086D01*
X54914Y-21124D01*
X54829Y-21124D01*
X54772Y-21086D01*
X54743Y-21048D01*
X54371Y-21124D02*
X54429Y-21086D01*
X54457Y-21010D01*
X54457Y-20324D01*
X53886Y-21124D02*
X53886Y-20705D01*
X53915Y-20629D01*
X53972Y-20590D01*
X54086Y-20590D01*
X54143Y-20629D01*
X53886Y-21086D02*
X53943Y-21124D01*
X54086Y-21124D01*
X54143Y-21086D01*
X54172Y-21010D01*
X54172Y-20933D01*
X54143Y-20857D01*
X54086Y-20819D01*
X53943Y-20819D01*
X53886Y-20781D01*
X53600Y-21124D02*
X53600Y-20324D01*
X53600Y-20629D02*
X53543Y-20590D01*
X53429Y-20590D01*
X53372Y-20629D01*
X53343Y-20667D01*
X53314Y-20743D01*
X53314Y-20971D01*
X53343Y-21048D01*
X53372Y-21086D01*
X53429Y-21124D01*
X53543Y-21124D01*
X53600Y-21086D01*
X53086Y-21086D02*
X53029Y-21124D01*
X52914Y-21124D01*
X52857Y-21086D01*
X52829Y-21010D01*
X52829Y-20971D01*
X52857Y-20895D01*
X52914Y-20857D01*
X53000Y-20857D01*
X53057Y-20819D01*
X53086Y-20743D01*
X53086Y-20705D01*
X53057Y-20629D01*
X53000Y-20590D01*
X52914Y-20590D01*
X52857Y-20629D01*
X52571Y-21048D02*
X52543Y-21086D01*
X52571Y-21124D01*
X52600Y-21086D01*
X52571Y-21048D01*
X52571Y-21124D01*
X52199Y-21124D02*
X52257Y-21086D01*
X52285Y-21048D01*
X52314Y-20971D01*
X52314Y-20743D01*
X52285Y-20667D01*
X52257Y-20629D01*
X52199Y-20590D01*
X52114Y-20590D01*
X52057Y-20629D01*
X52028Y-20667D01*
X51999Y-20743D01*
X51999Y-20971D01*
X52028Y-21048D01*
X52057Y-21086D01*
X52114Y-21124D01*
X52199Y-21124D01*
X51742Y-21124D02*
X51742Y-20590D01*
X51742Y-20743D02*
X51714Y-20667D01*
X51685Y-20629D01*
X51628Y-20590D01*
X51571Y-20590D01*
X51114Y-20590D02*
X51114Y-21238D01*
X51143Y-21314D01*
X51171Y-21352D01*
X51228Y-21390D01*
X51314Y-21390D01*
X51371Y-21352D01*
X51114Y-21086D02*
X51171Y-21124D01*
X51285Y-21124D01*
X51343Y-21086D01*
X51371Y-21048D01*
X51400Y-20971D01*
X51400Y-20743D01*
X51371Y-20667D01*
X51343Y-20629D01*
X51285Y-20590D01*
X51171Y-20590D01*
X51114Y-20629D01*
G54D11*
X73000Y-19000D02*
X34000Y-19000D01*
X73000Y-58000D02*
X73000Y-19000D01*
X34000Y-58200D02*
X73000Y-58200D01*
X34000Y-19000D02*
X34000Y-58000D01*
G54D13*
X43000Y-33000D03*
G54D14*
X44000Y-33000D03*
X43000Y-34000D03*
X44000Y-34000D03*
X44000Y-35000D03*
X43000Y-35000D03*
X44000Y-36000D03*
X43000Y-36000D03*
X44000Y-37000D03*
X43000Y-37000D03*
X44000Y-38000D03*
X43000Y-38000D03*
X44000Y-39000D03*
X43000Y-39000D03*
X44000Y-40000D03*
X43000Y-40000D03*
X44000Y-41000D03*
X43000Y-41000D03*
X44000Y-42000D03*
X43000Y-42000D03*
X44000Y-43000D03*
X43000Y-43000D03*
X44000Y-44000D03*
X43000Y-44000D03*
X44000Y-45000D03*
X43000Y-45000D03*
X44000Y-46000D03*
X43000Y-46000D03*
X44000Y-47000D03*
X43000Y-47000D03*
X44000Y-48000D03*
X43000Y-48000D03*
X44000Y-49000D03*
X43000Y-49000D03*
X44000Y-50000D03*
X43000Y-50000D03*
X44000Y-51000D03*
X43000Y-51000D03*
X44000Y-52000D03*
X43000Y-52000D03*
X44000Y-53000D03*
X43000Y-53000D03*
X44000Y-54000D03*
X43000Y-54000D03*
X44000Y-55000D03*
X43000Y-55000D03*
X44000Y-56000D03*
X43000Y-56000D03*
X44000Y-57000D03*
X43000Y-57000D03*
X63000Y-57000D03*
X64000Y-57000D03*
X63000Y-56000D03*
X64000Y-56000D03*
X63000Y-55000D03*
X64000Y-55000D03*
X63000Y-54000D03*
X64000Y-54000D03*
X63000Y-53000D03*
X64000Y-53000D03*
X63000Y-52000D03*
X64000Y-52000D03*
X63000Y-51000D03*
X64000Y-51000D03*
X63000Y-50000D03*
X64000Y-50000D03*
X63000Y-49000D03*
X64000Y-49000D03*
X63000Y-48000D03*
X64000Y-48000D03*
X63000Y-47000D03*
X64000Y-47000D03*
X63000Y-46000D03*
X64000Y-46000D03*
X63000Y-45000D03*
X64000Y-45000D03*
X63000Y-44000D03*
X64000Y-44000D03*
X63000Y-43000D03*
X64000Y-43000D03*
X63000Y-42000D03*
X64000Y-42000D03*
X63000Y-41000D03*
X64000Y-41000D03*
X63000Y-40000D03*
X64000Y-40000D03*
X63000Y-39000D03*
X64000Y-39000D03*
X63000Y-38000D03*
X64000Y-38000D03*
X63000Y-37000D03*
X64000Y-37000D03*
X63000Y-36000D03*
X64000Y-36000D03*
X63000Y-35000D03*
X64000Y-35000D03*
X63000Y-34000D03*
X64000Y-34000D03*
G54D13*
X63000Y-33000D03*
G54D14*
X64000Y-33000D03*
X69500Y-32500D03*
X69500Y-33500D03*
X69500Y-34500D03*
X69500Y-35500D03*
X69500Y-36500D03*
X69500Y-37500D03*
X69500Y-38500D03*
X69500Y-39500D03*
X69500Y-40500D03*
X69500Y-41500D03*
X70500Y-32500D03*
X70500Y-33500D03*
X70500Y-34500D03*
X70500Y-35500D03*
X70500Y-36500D03*
X70500Y-37500D03*
X70500Y-38500D03*
X70500Y-39500D03*
X70500Y-40500D03*
X70500Y-41500D03*
X71500Y-32500D03*
X71500Y-33500D03*
X71500Y-34500D03*
X71500Y-35500D03*
X71500Y-36500D03*
X71500Y-37500D03*
X71500Y-38500D03*
X71500Y-39500D03*
X71500Y-40500D03*
X71500Y-41500D03*
X69500Y-21000D03*
X69500Y-22000D03*
X69500Y-23000D03*
X69500Y-24000D03*
X69500Y-25000D03*
X69500Y-26000D03*
X69500Y-27000D03*
X69500Y-28000D03*
X69500Y-29000D03*
X69500Y-30000D03*
X70500Y-21000D03*
X70500Y-22000D03*
X70500Y-23000D03*
X70500Y-24000D03*
X70500Y-25000D03*
X70500Y-26000D03*
X70500Y-27000D03*
X70500Y-28000D03*
X70500Y-29000D03*
X70500Y-30000D03*
X71500Y-21000D03*
X71500Y-22000D03*
X71500Y-23000D03*
X71500Y-24000D03*
X71500Y-25000D03*
X71500Y-26000D03*
X71500Y-27000D03*
X71500Y-28000D03*
X71500Y-29000D03*
X71500Y-30000D03*
G54D15*
X53500Y-25500D03*
X66000Y-38000D03*
G54D16*
X71500Y-48000D03*
G54D14*
X71500Y-49000D03*
X71500Y-50000D03*
X71500Y-51000D03*
G54D16*
X70500Y-48000D03*
G54D14*
X70500Y-49000D03*
X70500Y-50000D03*
X70500Y-51000D03*
G54D16*
X69500Y-48000D03*
G54D14*
X69500Y-49000D03*
X69500Y-50000D03*
X69500Y-51000D03*
G54D16*
X68500Y-48000D03*
G54D14*
X68500Y-49000D03*
X68500Y-50000D03*
X68500Y-51000D03*
G54D16*
X67500Y-48000D03*
G54D14*
X67500Y-49000D03*
X67500Y-50000D03*
X67500Y-51000D03*
X71500Y-44500D03*
X71500Y-45500D03*
X71500Y-46500D03*
X70500Y-44500D03*
X70500Y-45500D03*
X70500Y-46500D03*
X68500Y-44500D03*
X68500Y-45500D03*
X68500Y-46500D03*
X67500Y-44500D03*
X67500Y-45500D03*
X67500Y-46500D03*
G54D13*
X39000Y-57000D03*
G54D14*
X39000Y-56000D03*
X39000Y-55000D03*
X39000Y-54000D03*
X39000Y-53000D03*
X39000Y-52000D03*
X39000Y-51000D03*
X39000Y-50000D03*
X39000Y-49000D03*
X39000Y-48000D03*
G54D16*
X67500Y-53500D03*
G54D14*
X67500Y-54500D03*
X67500Y-55500D03*
X67500Y-56500D03*
X71500Y-53500D03*
X71500Y-54500D03*
X71500Y-55500D03*
G54D16*
X71500Y-56500D03*
X69500Y-53500D03*
G54D14*
X69500Y-54500D03*
X69500Y-55500D03*
X69500Y-56500D03*
G54D15*
X53500Y-50500D03*
X41000Y-38000D03*
G54D13*
X39000Y-39900D03*
G54D14*
X39000Y-40900D03*
X39000Y-41900D03*
X39000Y-42900D03*
X39000Y-43900D03*
X39000Y-44900D03*
X39000Y-45900D03*
G54D17*
X39000Y-31990D03*
G54D18*
X39000Y-32990D03*
X39000Y-33990D03*
X39000Y-34990D03*
X39000Y-35990D03*
G54D19*
X59250Y-46250D03*
X52000Y-46200D03*
X66750Y-31250D03*
X45000Y-23000D03*
X37000Y-31000D03*
X58750Y-50750D03*
X66750Y-21000D03*
X68250Y-31250D03*
X54000Y-57000D03*
X65500Y-31250D03*
X59250Y-42000D03*
X56000Y-57000D03*
X57000Y-47250D03*
X61250Y-40750D03*
X55000Y-56000D03*
X49750Y-56000D03*
X50900Y-47300D03*
X58000Y-46250D03*
X61000Y-57000D03*
X54750Y-42000D03*
X57500Y-21000D03*
X60000Y-57000D03*
X56250Y-42000D03*
X65250Y-21000D03*
X59000Y-57000D03*
X54000Y-56000D03*
X43250Y-30500D03*
X47000Y-30500D03*
X59750Y-49750D03*
X60750Y-21000D03*
X53000Y-57000D03*
X61250Y-42000D03*
X56000Y-56000D03*
X61500Y-34500D03*
X61000Y-50750D03*
X53000Y-56000D03*
X62250Y-22250D03*
X63750Y-21000D03*
X58000Y-56000D03*
X62250Y-21000D03*
X46750Y-56000D03*
X56250Y-40250D03*
X63750Y-22250D03*
X65500Y-32250D03*
X60750Y-24000D03*
X54100Y-42650D03*
X59000Y-37500D03*
X59000Y-22500D03*
X59000Y-24000D03*
X60750Y-22500D03*
X57500Y-22500D03*
X48000Y-42200D03*
X57500Y-24000D03*
X46900Y-42200D03*
X59000Y-21000D03*
X66750Y-22250D03*
X55750Y-47250D03*
X56750Y-46250D03*
X66750Y-32250D03*
X37000Y-33000D03*
X71250Y-31250D03*
X37000Y-27000D03*
X60000Y-56000D03*
X47500Y-42750D03*
X56750Y-31750D03*
X35000Y-49000D03*
X47000Y-28500D03*
X57000Y-57000D03*
X50900Y-45800D03*
X37000Y-25000D03*
X49500Y-45750D03*
X35000Y-53000D03*
X53000Y-35400D03*
X37000Y-49000D03*
X35000Y-33000D03*
X56750Y-29000D03*
X61500Y-33500D03*
X45000Y-28500D03*
X35000Y-43000D03*
X57000Y-56000D03*
X65250Y-22250D03*
X43250Y-23000D03*
X35000Y-35000D03*
X35000Y-51000D03*
X37000Y-51000D03*
X59000Y-56000D03*
X60250Y-37500D03*
X35000Y-47000D03*
X55000Y-57000D03*
X58000Y-57000D03*
X55000Y-33500D03*
X59500Y-29000D03*
X37000Y-23000D03*
X47000Y-32500D03*
X35000Y-29000D03*
X35000Y-25000D03*
X35000Y-37000D03*
X43250Y-28500D03*
X39000Y-23000D03*
X37000Y-57000D03*
X37000Y-43000D03*
X60250Y-35750D03*
X35000Y-55000D03*
X35000Y-23000D03*
X35000Y-45000D03*
X35000Y-27000D03*
X43250Y-24750D03*
X61500Y-35750D03*
X61000Y-56000D03*
X35000Y-39000D03*
X47000Y-26500D03*
X45000Y-24750D03*
X64250Y-31250D03*
X61000Y-48000D03*
X37000Y-29000D03*
X45000Y-30500D03*
X35000Y-41000D03*
X62500Y-26000D03*
X51100Y-35600D03*
X37000Y-55000D03*
X47000Y-24750D03*
X35000Y-31000D03*
X37000Y-41000D03*
X45000Y-26500D03*
X37000Y-45000D03*
X69750Y-31250D03*
X37000Y-47000D03*
X37000Y-35000D03*
X55000Y-31750D03*
X47000Y-23000D03*
X59500Y-26000D03*
X51100Y-37300D03*
X47000Y-39700D03*
X37000Y-37000D03*
X43250Y-26500D03*
X37000Y-39000D03*
X47000Y-49750D03*
X53000Y-33800D03*
X41000Y-23000D03*
X35000Y-57000D03*
X37000Y-53000D03*
X47000Y-48250D03*
G54D20*
X69500Y-56500D02*
X71001Y-54999D01*
X42300Y-34000D02*
X42300Y-33100D01*
X39900Y-39500D02*
X39100Y-38700D01*
X39000Y-45900D02*
X39000Y-48000D01*
X39200Y-45900D02*
X39900Y-45200D01*
X72001Y-54971D02*
X72001Y-49500D01*
X39900Y-45200D02*
X39900Y-39500D01*
X70000Y-49500D02*
X69500Y-49000D01*
X72169Y-49332D02*
X72001Y-49500D01*
X72169Y-45169D02*
X72169Y-49332D01*
X39000Y-45900D02*
X39200Y-45900D01*
X39100Y-37200D02*
X42300Y-34000D01*
X42400Y-33000D02*
X43000Y-33000D01*
X71001Y-54999D02*
X71973Y-54999D01*
X72001Y-49500D02*
X70000Y-49500D01*
X71500Y-44500D02*
X72169Y-45169D01*
X39100Y-38700D02*
X39100Y-37200D01*
X71973Y-54999D02*
X72001Y-54971D01*
X42300Y-33100D02*
X42400Y-33000D01*
X70500Y-35500D02*
X70500Y-34500D01*
X70500Y-38500D02*
X70500Y-37500D01*
X70500Y-37500D02*
X70500Y-36500D01*
X70500Y-40500D02*
X70500Y-39500D01*
X70500Y-29000D02*
X70500Y-28000D01*
X70500Y-29000D02*
X70500Y-30000D01*
X70500Y-26000D02*
X70500Y-25000D01*
X70500Y-36500D02*
X70500Y-35500D01*
X69306Y-42694D02*
X70500Y-41500D01*
X70500Y-28000D02*
X70500Y-27000D01*
X70500Y-39500D02*
X70500Y-38500D01*
X70500Y-25000D02*
X70500Y-24000D01*
X70500Y-30000D02*
X70500Y-32500D01*
X70500Y-27000D02*
X70500Y-26000D01*
X68500Y-46500D02*
X69306Y-45694D01*
X69306Y-45694D02*
X69306Y-42694D01*
X71500Y-46500D02*
X70500Y-46500D01*
X71500Y-33500D02*
X71500Y-32500D01*
X70500Y-48000D02*
X71500Y-48000D01*
X71500Y-39500D02*
X71500Y-40500D01*
X60250Y-35750D02*
X60250Y-37500D01*
X68993Y-51873D02*
X68993Y-48493D01*
X69500Y-52380D02*
X68993Y-51873D01*
X68993Y-48493D02*
X68500Y-48000D01*
X61000Y-50250D02*
X61000Y-50750D01*
X71500Y-34500D02*
X71500Y-33500D01*
X63250Y-31250D02*
X61500Y-33000D01*
X71500Y-38500D02*
X71500Y-37500D01*
X71500Y-28000D02*
X71500Y-27000D01*
X71500Y-30000D02*
X71500Y-31250D01*
X67500Y-53500D02*
X67500Y-53993D01*
X71500Y-37500D02*
X71500Y-36500D01*
X53000Y-35400D02*
X53000Y-33800D01*
X71500Y-26000D02*
X71500Y-25000D01*
X55000Y-56000D02*
X56000Y-56000D01*
X50900Y-47300D02*
X52000Y-46200D01*
X71500Y-31250D02*
X71500Y-32500D01*
X71500Y-27000D02*
X71500Y-26000D01*
X62250Y-21000D02*
X60750Y-21000D01*
X61500Y-34500D02*
X61500Y-35750D01*
X69500Y-53500D02*
X69500Y-52380D01*
X35000Y-33000D02*
X35000Y-31000D01*
X56000Y-57000D02*
X57000Y-57000D01*
X39000Y-39900D02*
X38200Y-39900D01*
X71500Y-29000D02*
X71500Y-30000D01*
X70750Y-19750D02*
X66750Y-19750D01*
X59000Y-56000D02*
X60000Y-56000D01*
X65250Y-21000D02*
X63750Y-21000D01*
X54750Y-42000D02*
X54100Y-42650D01*
X61500Y-33000D02*
X61500Y-33500D01*
X37900Y-57000D02*
X39000Y-57000D01*
X65500Y-32250D02*
X65500Y-31250D01*
X57000Y-56000D02*
X58000Y-56000D01*
X71500Y-20500D02*
X70750Y-19750D01*
X49750Y-56000D02*
X46750Y-56000D01*
X68500Y-48000D02*
X69500Y-48000D01*
X71500Y-23000D02*
X71500Y-22000D01*
X71500Y-21000D02*
X71500Y-20500D01*
X71500Y-22000D02*
X71500Y-21000D01*
X71500Y-35500D02*
X71500Y-34500D01*
X71500Y-40500D02*
X71500Y-41500D01*
X57000Y-47250D02*
X58000Y-46250D01*
X66750Y-22250D02*
X65250Y-22250D01*
X71500Y-39500D02*
X71500Y-38500D01*
X71500Y-36500D02*
X71500Y-35500D01*
X56750Y-46250D02*
X55750Y-47250D01*
X59000Y-21000D02*
X57500Y-21000D01*
X71500Y-24000D02*
X71500Y-23000D01*
X66750Y-19750D02*
X66750Y-21000D01*
X60000Y-57000D02*
X61000Y-57000D01*
X66750Y-31250D02*
X66750Y-32250D01*
X37200Y-56300D02*
X37900Y-57000D01*
X60750Y-22500D02*
X60750Y-24000D01*
X38200Y-39900D02*
X37200Y-40900D01*
X71500Y-25000D02*
X71500Y-24000D01*
X63750Y-22250D02*
X62250Y-22250D01*
X53000Y-56000D02*
X54000Y-56000D01*
X37200Y-40900D02*
X37200Y-56300D01*
X64250Y-31250D02*
X63250Y-31250D01*
X71500Y-31250D02*
X71250Y-31250D01*
X47500Y-42750D02*
X46900Y-42200D01*
X59250Y-42000D02*
X61250Y-42000D01*
X57500Y-22500D02*
X57500Y-24000D01*
X68250Y-31250D02*
X69750Y-31250D01*
X69500Y-46090D02*
X69780Y-45810D01*
X35000Y-57000D02*
X35000Y-55000D01*
X51100Y-35600D02*
X51100Y-37300D01*
X43250Y-28500D02*
X43250Y-30500D01*
X59000Y-37500D02*
X56250Y-40250D01*
X43250Y-24750D02*
X45000Y-24750D01*
X54050Y-42650D02*
X50900Y-45800D01*
X47000Y-49750D02*
X47000Y-48250D01*
X35000Y-53000D02*
X35000Y-51000D01*
X58000Y-57000D02*
X59000Y-57000D01*
X47000Y-32500D02*
X47000Y-39700D01*
X63000Y-57000D02*
X53000Y-57000D01*
X54100Y-42650D02*
X54050Y-42650D01*
X37000Y-47000D02*
X37000Y-45000D01*
X39000Y-57000D02*
X37000Y-57000D01*
X41000Y-23000D02*
X43250Y-23000D01*
X69500Y-48000D02*
X69500Y-46090D01*
X35000Y-45000D02*
X35000Y-43000D01*
X37000Y-23000D02*
X39000Y-23000D01*
X54000Y-57000D02*
X55000Y-57000D01*
X45000Y-23000D02*
X47000Y-23000D01*
X37000Y-27000D02*
X37000Y-25000D01*
X47000Y-28500D02*
X45000Y-28500D01*
X45000Y-30500D02*
X47000Y-30500D01*
X69780Y-43220D02*
X71500Y-41500D01*
X56750Y-31750D02*
X56750Y-29000D01*
X37000Y-43000D02*
X37000Y-41000D01*
X37000Y-55000D02*
X37000Y-53000D01*
X58750Y-50750D02*
X59750Y-49750D01*
X35000Y-49000D02*
X35000Y-47000D01*
X37000Y-31000D02*
X37000Y-29000D01*
X55000Y-31750D02*
X55000Y-33500D01*
X67007Y-53993D02*
X64000Y-57000D01*
X59500Y-29000D02*
X59500Y-26000D01*
X35000Y-37000D02*
X35000Y-35000D01*
X56250Y-42000D02*
X54750Y-42000D01*
X59000Y-24000D02*
X59000Y-22500D01*
X35000Y-25000D02*
X35000Y-23000D01*
X45000Y-26500D02*
X43250Y-26500D01*
X47000Y-24750D02*
X47000Y-26500D01*
X37000Y-51000D02*
X37000Y-49000D01*
X69780Y-45810D02*
X69780Y-43220D01*
X35000Y-29000D02*
X35000Y-27000D01*
X37000Y-35000D02*
X37000Y-33000D01*
X67500Y-53993D02*
X67007Y-53993D01*
X61000Y-48000D02*
X61000Y-50250D01*
X71500Y-29000D02*
X71500Y-28000D01*
X37000Y-39000D02*
X37000Y-37000D01*
X35000Y-41000D02*
X35000Y-39000D01*
X69993Y-32993D02*
X69500Y-32500D01*
X70972Y-34006D02*
X70276Y-34006D01*
X63000Y-55000D02*
X62239Y-54239D01*
X62239Y-54239D02*
X62239Y-46890D01*
X70276Y-34006D02*
X69993Y-33723D01*
X64530Y-46424D02*
X64530Y-45778D01*
X62677Y-46492D02*
X64462Y-46492D01*
X64462Y-46492D02*
X64530Y-46424D01*
X62239Y-46890D02*
X62677Y-46492D01*
X70966Y-41000D02*
X70994Y-40972D01*
X69993Y-33723D02*
X69993Y-32993D01*
X70994Y-34028D02*
X70972Y-34006D01*
X64530Y-45778D02*
X69268Y-41000D01*
X69268Y-41000D02*
X70966Y-41000D01*
X70994Y-40972D02*
X70994Y-34028D01*
X39000Y-52000D02*
X41500Y-49500D01*
X43500Y-49500D02*
X44000Y-49000D01*
X41500Y-49500D02*
X43500Y-49500D01*
X39000Y-51000D02*
X41000Y-49000D01*
X41000Y-49000D02*
X43000Y-49000D01*
X49519Y-57756D02*
X62775Y-44500D01*
X40756Y-57756D02*
X49519Y-57756D01*
X62775Y-44500D02*
X63500Y-44500D01*
X39000Y-56000D02*
X40756Y-57756D01*
X63500Y-44500D02*
X64000Y-45000D01*
X41539Y-57539D02*
X39000Y-55000D01*
X49461Y-57539D02*
X41539Y-57539D01*
X63000Y-44000D02*
X49461Y-57539D01*
X39000Y-54020D02*
X41480Y-56500D01*
X41480Y-56500D02*
X42240Y-56500D01*
X39000Y-54000D02*
X39000Y-54020D01*
X58067Y-43500D02*
X63500Y-43500D01*
X63500Y-43500D02*
X64000Y-44000D01*
X45080Y-56497D02*
X58067Y-43500D01*
X42240Y-56497D02*
X45080Y-56497D01*
X42240Y-56500D02*
X42240Y-56497D01*
X69281Y-36994D02*
X68128Y-38147D01*
X67750Y-41000D02*
X68129Y-40621D01*
X69994Y-36800D02*
X69800Y-36994D01*
X65070Y-41000D02*
X64000Y-41000D01*
X68129Y-40621D02*
X68129Y-38146D01*
X68128Y-38145D02*
X68128Y-38147D01*
X69800Y-36994D02*
X69281Y-36994D01*
X69994Y-34994D02*
X69994Y-36800D01*
X68129Y-38146D02*
X68128Y-38145D01*
X65070Y-41000D02*
X67750Y-41000D01*
X69500Y-34500D02*
X69994Y-34994D01*
X44225Y-55500D02*
X43500Y-55500D01*
X62225Y-37500D02*
X44225Y-55500D01*
X63500Y-35610D02*
X63610Y-35500D01*
X69500Y-35500D02*
X66950Y-35500D01*
X43500Y-55500D02*
X43000Y-56000D01*
X63050Y-37500D02*
X63380Y-37500D01*
X63050Y-37500D02*
X62225Y-37500D01*
X63610Y-35500D02*
X66950Y-35500D01*
X63380Y-37500D02*
X63500Y-37380D01*
X63500Y-37380D02*
X63500Y-35610D01*
X64650Y-39500D02*
X64920Y-39500D01*
X67710Y-39300D02*
X67710Y-38290D01*
X67070Y-39940D02*
X67710Y-39300D01*
X60500Y-39500D02*
X44000Y-56000D01*
X65360Y-39940D02*
X67070Y-39940D01*
X69500Y-36500D02*
X67710Y-38290D01*
X64920Y-39500D02*
X65360Y-39940D01*
X64650Y-39500D02*
X60500Y-39500D01*
X62014Y-55014D02*
X62014Y-46261D01*
X62775Y-45500D02*
X64427Y-45500D01*
X65549Y-44378D02*
X65552Y-44378D01*
X63000Y-56000D02*
X62014Y-55014D01*
X62014Y-46261D02*
X62775Y-45500D01*
X68630Y-38370D02*
X69500Y-37500D01*
X64427Y-45500D02*
X65549Y-44378D01*
X68630Y-41300D02*
X68630Y-38370D01*
X65552Y-44378D02*
X68630Y-41300D01*
X67524Y-52113D02*
X67679Y-52113D01*
X68403Y-54403D02*
X69500Y-55500D01*
X64000Y-49000D02*
X64411Y-49000D01*
X67679Y-52113D02*
X68403Y-52837D01*
X64411Y-49000D02*
X67524Y-52113D01*
X68403Y-52837D02*
X68403Y-54403D01*
X68596Y-53870D02*
X69226Y-54500D01*
X64205Y-48500D02*
X67625Y-51920D01*
X63000Y-48000D02*
X63500Y-48500D01*
X67625Y-51920D02*
X67760Y-51920D01*
X69226Y-54500D02*
X69500Y-54500D01*
X68596Y-52756D02*
X68596Y-53870D01*
X63500Y-48500D02*
X64205Y-48500D01*
X67760Y-51920D02*
X68596Y-52756D01*
X69966Y-22500D02*
X69994Y-22472D01*
X69287Y-22500D02*
X69966Y-22500D01*
X45016Y-52984D02*
X45016Y-46771D01*
X45016Y-46771D02*
X69287Y-22500D01*
X69994Y-21494D02*
X69500Y-21000D01*
X44000Y-54000D02*
X45016Y-52984D01*
X69994Y-22472D02*
X69994Y-21494D01*
X43498Y-53552D02*
X43498Y-51230D01*
X43498Y-51230D02*
X43498Y-50589D01*
X43498Y-50589D02*
X43586Y-50501D01*
X44822Y-49920D02*
X44241Y-50501D01*
X69500Y-22000D02*
X44822Y-46678D01*
X44241Y-50501D02*
X43586Y-50501D01*
X43050Y-54000D02*
X43498Y-53552D01*
X43000Y-54000D02*
X43050Y-54000D01*
X44822Y-46678D02*
X44822Y-49920D01*
X69972Y-24494D02*
X70000Y-24466D01*
X45596Y-53404D02*
X45596Y-48206D01*
X69308Y-24494D02*
X69972Y-24494D01*
X44000Y-55000D02*
X45596Y-53404D01*
X45596Y-48206D02*
X69308Y-24494D01*
X70000Y-24466D02*
X70000Y-23500D01*
X70000Y-23500D02*
X69500Y-23000D01*
X43000Y-55000D02*
X43500Y-54500D01*
X43500Y-54500D02*
X44228Y-54500D01*
X45210Y-53518D02*
X45210Y-53080D01*
X44228Y-54500D02*
X45210Y-53518D01*
X45210Y-53080D02*
X45210Y-48290D01*
X45210Y-48290D02*
X69500Y-24000D01*
X67500Y-50000D02*
X66000Y-50000D01*
X66000Y-50000D02*
X64000Y-48000D01*
X62990Y-47000D02*
X62470Y-47520D01*
X64634Y-49502D02*
X67437Y-52305D01*
X68210Y-52916D02*
X68210Y-55912D01*
X62470Y-49410D02*
X62562Y-49502D01*
X69995Y-57005D02*
X71500Y-55500D01*
X67437Y-52305D02*
X67599Y-52305D01*
X62562Y-49502D02*
X64634Y-49502D01*
X69303Y-57005D02*
X69995Y-57005D01*
X62470Y-47520D02*
X62470Y-49410D01*
X68210Y-55912D02*
X69303Y-57005D01*
X69995Y-57005D02*
X69303Y-57005D01*
X63000Y-47000D02*
X62990Y-47000D01*
X69303Y-57005D02*
X68210Y-55912D01*
X67599Y-52305D02*
X68210Y-52916D01*
X71500Y-55500D02*
X69995Y-57005D01*
X67994Y-51633D02*
X67994Y-49528D01*
X69006Y-53966D02*
X69006Y-52645D01*
X69006Y-52645D02*
X67994Y-51633D01*
X67966Y-49500D02*
X66500Y-49500D01*
X66500Y-49500D02*
X64000Y-47000D01*
X71500Y-54500D02*
X70994Y-53994D01*
X69034Y-53994D02*
X69006Y-53966D01*
X67994Y-49528D02*
X67966Y-49500D01*
X70994Y-53994D02*
X69034Y-53994D01*
X63500Y-52500D02*
X63000Y-52000D01*
X67500Y-54500D02*
X67994Y-54006D01*
X67994Y-53034D02*
X67460Y-52500D01*
X67460Y-52500D02*
X63500Y-52500D01*
X67994Y-54006D02*
X67994Y-53034D01*
G54D21*
X71984Y-48516D02*
X71500Y-49000D01*
X71984Y-45984D02*
X71984Y-48516D01*
X71500Y-45500D02*
X71984Y-45984D01*
X70016Y-48516D02*
X70500Y-49000D01*
X70016Y-45984D02*
X70016Y-48516D01*
X70500Y-45500D02*
X70016Y-45984D01*
X67016Y-48516D02*
X67500Y-49000D01*
X67016Y-45984D02*
X67016Y-48516D01*
X67500Y-45500D02*
X67016Y-45984D01*
X68017Y-48517D02*
X68500Y-49000D01*
X68017Y-45983D02*
X68017Y-48517D01*
X68500Y-45500D02*
X68017Y-45983D01*
G54D10*
G36*
X43141Y-57000D02*
X43003Y-57139D01*
X42997Y-57139D01*
X42858Y-57000D01*
X42859Y-57000D01*
X42858Y-56999D01*
X42961Y-56897D01*
X43039Y-56897D01*
X43141Y-56999D01*
X43141Y-57000D01*
X43141Y-57000D01*
G37*
G54D20*
X43141Y-57000D02*
X43003Y-57139D01*
X42997Y-57139D01*
X42858Y-57000D01*
X42859Y-57000D01*
X42858Y-56999D01*
X42961Y-56897D01*
X43039Y-56897D01*
X43141Y-56999D01*
X43141Y-57000D01*
G54D10*
G36*
X44141Y-57000D02*
X44003Y-57139D01*
X43997Y-57139D01*
X43858Y-57000D01*
X43859Y-57000D01*
X43858Y-56999D01*
X43961Y-56897D01*
X44039Y-56897D01*
X44141Y-56999D01*
X44141Y-57000D01*
X44141Y-57000D01*
G37*
G54D20*
X44141Y-57000D02*
X44003Y-57139D01*
X43997Y-57139D01*
X43858Y-57000D01*
X43859Y-57000D01*
X43858Y-56999D01*
X43961Y-56897D01*
X44039Y-56897D01*
X44141Y-56999D01*
X44141Y-57000D01*
G54D10*
G36*
X62301Y-44133D02*
X49295Y-57139D01*
X44571Y-57139D01*
X44598Y-57041D01*
X44580Y-56897D01*
X45080Y-56897D01*
X45233Y-56867D01*
X45363Y-56780D01*
X51850Y-50293D01*
X51850Y-50827D01*
X52101Y-51434D01*
X52564Y-51898D01*
X53171Y-52150D01*
X53827Y-52150D01*
X54434Y-51899D01*
X54898Y-51436D01*
X55150Y-50829D01*
X55150Y-50173D01*
X54899Y-49566D01*
X54436Y-49102D01*
X53829Y-48850D01*
X53293Y-48850D01*
X58243Y-43900D01*
X62301Y-43900D01*
X62301Y-44133D01*
X62301Y-44133D01*
G37*
G54D20*
X62301Y-44133D02*
X49295Y-57139D01*
X44571Y-57139D01*
X44598Y-57041D01*
X44580Y-56897D01*
X45080Y-56897D01*
X45233Y-56867D01*
X45363Y-56780D01*
X51850Y-50293D01*
X51850Y-50827D01*
X52101Y-51434D01*
X52564Y-51898D01*
X53171Y-52150D01*
X53827Y-52150D01*
X54434Y-51899D01*
X54898Y-51436D01*
X55150Y-50829D01*
X55150Y-50173D01*
X54899Y-49566D01*
X54436Y-49102D01*
X53829Y-48850D01*
X53293Y-48850D01*
X58243Y-43900D01*
X62301Y-43900D01*
X62301Y-44133D01*
G54D10*
G36*
X62511Y-42500D02*
X62408Y-42603D01*
X62301Y-42860D01*
X62301Y-43100D01*
X58067Y-43100D01*
X57914Y-43130D01*
X57784Y-43217D01*
X57763Y-43247D01*
X44914Y-56097D01*
X44699Y-56097D01*
X44699Y-55866D01*
X60665Y-39900D01*
X62301Y-39900D01*
X62301Y-40138D01*
X62407Y-40395D01*
X62511Y-40500D01*
X62408Y-40603D01*
X62301Y-40860D01*
X62301Y-41138D01*
X62407Y-41395D01*
X62511Y-41500D01*
X62408Y-41603D01*
X62301Y-41860D01*
X62301Y-42138D01*
X62407Y-42395D01*
X62511Y-42500D01*
X62511Y-42500D01*
G37*
G54D20*
X62511Y-42500D02*
X62408Y-42603D01*
X62301Y-42860D01*
X62301Y-43100D01*
X58067Y-43100D01*
X57914Y-43130D01*
X57784Y-43217D01*
X57763Y-43247D01*
X44914Y-56097D01*
X44699Y-56097D01*
X44699Y-55866D01*
X60665Y-39900D01*
X62301Y-39900D01*
X62301Y-40138D01*
X62407Y-40395D01*
X62511Y-40500D01*
X62408Y-40603D01*
X62301Y-40860D01*
X62301Y-41138D01*
X62407Y-41395D01*
X62511Y-41500D01*
X62408Y-41603D01*
X62301Y-41860D01*
X62301Y-42138D01*
X62407Y-42395D01*
X62511Y-42500D01*
G54D10*
G36*
X67627Y-47435D02*
X67600Y-47462D01*
X67600Y-47850D01*
X67600Y-47900D01*
X67600Y-48100D01*
X67406Y-48100D01*
X67406Y-47199D01*
X67627Y-47199D01*
X67627Y-47435D01*
X67627Y-47435D01*
G37*
G54D20*
X67627Y-47435D02*
X67600Y-47462D01*
X67600Y-47850D01*
X67600Y-47900D01*
X67600Y-48100D01*
X67406Y-48100D01*
X67406Y-47199D01*
X67627Y-47199D01*
X67627Y-47435D01*
G54D10*
G36*
X69643Y-45894D02*
X69626Y-45984D01*
X69626Y-47436D01*
X69600Y-47462D01*
X69600Y-47850D01*
X69600Y-47900D01*
X69600Y-48100D01*
X69400Y-48100D01*
X69400Y-47900D01*
X69400Y-47462D01*
X69338Y-47400D01*
X69199Y-47401D01*
X69100Y-47401D01*
X69009Y-47439D01*
X69000Y-47448D01*
X68991Y-47439D01*
X68900Y-47401D01*
X68801Y-47401D01*
X68662Y-47400D01*
X68600Y-47462D01*
X68600Y-47900D01*
X68962Y-47900D01*
X69038Y-47900D01*
X69400Y-47900D01*
X69400Y-48100D01*
X69350Y-48100D01*
X69038Y-48100D01*
X68962Y-48100D01*
X68650Y-48100D01*
X68600Y-48100D01*
X68407Y-48100D01*
X68407Y-47199D01*
X68638Y-47199D01*
X68895Y-47093D01*
X69092Y-46897D01*
X69199Y-46640D01*
X69199Y-46366D01*
X69585Y-45979D01*
X69588Y-45977D01*
X69589Y-45977D01*
X69643Y-45894D01*
X69643Y-45894D01*
G37*
G54D20*
X69643Y-45894D02*
X69626Y-45984D01*
X69626Y-47436D01*
X69600Y-47462D01*
X69600Y-47850D01*
X69600Y-47900D01*
X69600Y-48100D01*
X69400Y-48100D01*
X69400Y-47900D01*
X69400Y-47462D01*
X69338Y-47400D01*
X69199Y-47401D01*
X69100Y-47401D01*
X69009Y-47439D01*
X69000Y-47448D01*
X68991Y-47439D01*
X68900Y-47401D01*
X68801Y-47401D01*
X68662Y-47400D01*
X68600Y-47462D01*
X68600Y-47900D01*
X68962Y-47900D01*
X69038Y-47900D01*
X69400Y-47900D01*
X69400Y-48100D01*
X69350Y-48100D01*
X69038Y-48100D01*
X68962Y-48100D01*
X68650Y-48100D01*
X68600Y-48100D01*
X68407Y-48100D01*
X68407Y-47199D01*
X68638Y-47199D01*
X68895Y-47093D01*
X69092Y-46897D01*
X69199Y-46640D01*
X69199Y-46366D01*
X69585Y-45979D01*
X69588Y-45977D01*
X69589Y-45977D01*
X69643Y-45894D01*
G54D10*
G36*
X70100Y-31911D02*
X69999Y-32011D01*
X69897Y-31908D01*
X69640Y-31801D01*
X69362Y-31801D01*
X69105Y-31907D01*
X68908Y-32103D01*
X68801Y-32360D01*
X68801Y-32638D01*
X68907Y-32895D01*
X69011Y-33000D01*
X68908Y-33103D01*
X68801Y-33360D01*
X68801Y-33638D01*
X68907Y-33895D01*
X69011Y-34000D01*
X68908Y-34103D01*
X68801Y-34360D01*
X68801Y-34638D01*
X68907Y-34895D01*
X69011Y-35000D01*
X68911Y-35100D01*
X66950Y-35100D01*
X64699Y-35100D01*
X64699Y-34862D01*
X64593Y-34605D01*
X64488Y-34499D01*
X64592Y-34397D01*
X64699Y-34140D01*
X64699Y-33862D01*
X64593Y-33605D01*
X64488Y-33499D01*
X64592Y-33397D01*
X64699Y-33140D01*
X64699Y-32862D01*
X64593Y-32605D01*
X64397Y-32408D01*
X64140Y-32301D01*
X63862Y-32301D01*
X63605Y-32407D01*
X63577Y-32434D01*
X63523Y-32379D01*
X63395Y-32326D01*
X63256Y-32326D01*
X62606Y-32326D01*
X62478Y-32379D01*
X62379Y-32477D01*
X62326Y-32605D01*
X62326Y-32744D01*
X62326Y-33394D01*
X62379Y-33522D01*
X62433Y-33577D01*
X62408Y-33603D01*
X62301Y-33860D01*
X62301Y-34138D01*
X62407Y-34395D01*
X62511Y-34500D01*
X62408Y-34603D01*
X62301Y-34860D01*
X62301Y-35138D01*
X62407Y-35395D01*
X62511Y-35500D01*
X62408Y-35603D01*
X62301Y-35860D01*
X62301Y-36138D01*
X62407Y-36395D01*
X62511Y-36500D01*
X62408Y-36603D01*
X62301Y-36860D01*
X62301Y-37100D01*
X62225Y-37100D01*
X62224Y-37100D01*
X62194Y-37106D01*
X62072Y-37130D01*
X61942Y-37217D01*
X61939Y-37220D01*
X45996Y-53163D01*
X45996Y-48371D01*
X68939Y-25427D01*
X69011Y-25500D01*
X68908Y-25603D01*
X68801Y-25860D01*
X68801Y-26138D01*
X68907Y-26395D01*
X69011Y-26500D01*
X68908Y-26603D01*
X68801Y-26860D01*
X68801Y-27138D01*
X68907Y-27395D01*
X69011Y-27500D01*
X68908Y-27603D01*
X68801Y-27860D01*
X68801Y-28138D01*
X68907Y-28395D01*
X69011Y-28500D01*
X68908Y-28603D01*
X68801Y-28860D01*
X68801Y-29138D01*
X68907Y-29395D01*
X69011Y-29500D01*
X68908Y-29603D01*
X68801Y-29860D01*
X68801Y-30138D01*
X68907Y-30395D01*
X69103Y-30592D01*
X69360Y-30699D01*
X69638Y-30699D01*
X69895Y-30593D01*
X70000Y-30488D01*
X70100Y-30588D01*
X70100Y-31911D01*
X70100Y-31911D01*
G37*
G54D20*
X70100Y-31911D02*
X69999Y-32011D01*
X69897Y-31908D01*
X69640Y-31801D01*
X69362Y-31801D01*
X69105Y-31907D01*
X68908Y-32103D01*
X68801Y-32360D01*
X68801Y-32638D01*
X68907Y-32895D01*
X69011Y-33000D01*
X68908Y-33103D01*
X68801Y-33360D01*
X68801Y-33638D01*
X68907Y-33895D01*
X69011Y-34000D01*
X68908Y-34103D01*
X68801Y-34360D01*
X68801Y-34638D01*
X68907Y-34895D01*
X69011Y-35000D01*
X68911Y-35100D01*
X66950Y-35100D01*
X64699Y-35100D01*
X64699Y-34862D01*
X64593Y-34605D01*
X64488Y-34499D01*
X64592Y-34397D01*
X64699Y-34140D01*
X64699Y-33862D01*
X64593Y-33605D01*
X64488Y-33499D01*
X64592Y-33397D01*
X64699Y-33140D01*
X64699Y-32862D01*
X64593Y-32605D01*
X64397Y-32408D01*
X64140Y-32301D01*
X63862Y-32301D01*
X63605Y-32407D01*
X63577Y-32434D01*
X63523Y-32379D01*
X63395Y-32326D01*
X63256Y-32326D01*
X62606Y-32326D01*
X62478Y-32379D01*
X62379Y-32477D01*
X62326Y-32605D01*
X62326Y-32744D01*
X62326Y-33394D01*
X62379Y-33522D01*
X62433Y-33577D01*
X62408Y-33603D01*
X62301Y-33860D01*
X62301Y-34138D01*
X62407Y-34395D01*
X62511Y-34500D01*
X62408Y-34603D01*
X62301Y-34860D01*
X62301Y-35138D01*
X62407Y-35395D01*
X62511Y-35500D01*
X62408Y-35603D01*
X62301Y-35860D01*
X62301Y-36138D01*
X62407Y-36395D01*
X62511Y-36500D01*
X62408Y-36603D01*
X62301Y-36860D01*
X62301Y-37100D01*
X62225Y-37100D01*
X62224Y-37100D01*
X62194Y-37106D01*
X62072Y-37130D01*
X61942Y-37217D01*
X61939Y-37220D01*
X45996Y-53163D01*
X45996Y-48371D01*
X68939Y-25427D01*
X69011Y-25500D01*
X68908Y-25603D01*
X68801Y-25860D01*
X68801Y-26138D01*
X68907Y-26395D01*
X69011Y-26500D01*
X68908Y-26603D01*
X68801Y-26860D01*
X68801Y-27138D01*
X68907Y-27395D01*
X69011Y-27500D01*
X68908Y-27603D01*
X68801Y-27860D01*
X68801Y-28138D01*
X68907Y-28395D01*
X69011Y-28500D01*
X68908Y-28603D01*
X68801Y-28860D01*
X68801Y-29138D01*
X68907Y-29395D01*
X69011Y-29500D01*
X68908Y-29603D01*
X68801Y-29860D01*
X68801Y-30138D01*
X68907Y-30395D01*
X69103Y-30592D01*
X69360Y-30699D01*
X69638Y-30699D01*
X69895Y-30593D01*
X70000Y-30488D01*
X70100Y-30588D01*
X70100Y-31911D01*
G54D10*
G36*
X71594Y-48100D02*
X71400Y-48100D01*
X71400Y-47900D01*
X71400Y-47462D01*
X71338Y-47400D01*
X71199Y-47401D01*
X71100Y-47401D01*
X71009Y-47439D01*
X71000Y-47448D01*
X70991Y-47439D01*
X70900Y-47401D01*
X70801Y-47401D01*
X70662Y-47400D01*
X70600Y-47462D01*
X70600Y-47900D01*
X70962Y-47900D01*
X71038Y-47900D01*
X71400Y-47900D01*
X71400Y-48100D01*
X71350Y-48100D01*
X71038Y-48100D01*
X70962Y-48100D01*
X70650Y-48100D01*
X70600Y-48100D01*
X70406Y-48100D01*
X70406Y-47199D01*
X70638Y-47199D01*
X70895Y-47093D01*
X71000Y-46988D01*
X71103Y-47092D01*
X71360Y-47199D01*
X71594Y-47199D01*
X71594Y-48100D01*
X71594Y-48100D01*
G37*
G54D20*
X71594Y-48100D02*
X71400Y-48100D01*
X71400Y-47900D01*
X71400Y-47462D01*
X71338Y-47400D01*
X71199Y-47401D01*
X71100Y-47401D01*
X71009Y-47439D01*
X71000Y-47448D01*
X70991Y-47439D01*
X70900Y-47401D01*
X70801Y-47401D01*
X70662Y-47400D01*
X70600Y-47462D01*
X70600Y-47900D01*
X70962Y-47900D01*
X71038Y-47900D01*
X71400Y-47900D01*
X71400Y-48100D01*
X71350Y-48100D01*
X71038Y-48100D01*
X70962Y-48100D01*
X70650Y-48100D01*
X70600Y-48100D01*
X70406Y-48100D01*
X70406Y-47199D01*
X70638Y-47199D01*
X70895Y-47093D01*
X71000Y-46988D01*
X71103Y-47092D01*
X71360Y-47199D01*
X71594Y-47199D01*
X71594Y-48100D01*
G54D10*
G36*
X71601Y-52801D02*
X71362Y-52801D01*
X71105Y-52907D01*
X70908Y-53103D01*
X70801Y-53360D01*
X70801Y-53594D01*
X70100Y-53594D01*
X70100Y-53338D01*
X70099Y-53101D01*
X70061Y-53009D01*
X69991Y-52939D01*
X69900Y-52901D01*
X69801Y-52901D01*
X69662Y-52900D01*
X69600Y-52962D01*
X69600Y-53400D01*
X70038Y-53400D01*
X70100Y-53338D01*
X70100Y-53594D01*
X69406Y-53594D01*
X69406Y-52645D01*
X69376Y-52492D01*
X69376Y-52491D01*
X69289Y-52362D01*
X68626Y-51699D01*
X68638Y-51699D01*
X68895Y-51593D01*
X69000Y-51488D01*
X69103Y-51592D01*
X69360Y-51699D01*
X69638Y-51699D01*
X69895Y-51593D01*
X70000Y-51488D01*
X70103Y-51592D01*
X70360Y-51699D01*
X70638Y-51699D01*
X70895Y-51593D01*
X71000Y-51488D01*
X71103Y-51592D01*
X71360Y-51699D01*
X71601Y-51699D01*
X71601Y-52801D01*
X71601Y-52801D01*
G37*
G54D20*
X71601Y-52801D02*
X71362Y-52801D01*
X71105Y-52907D01*
X70908Y-53103D01*
X70801Y-53360D01*
X70801Y-53594D01*
X70100Y-53594D01*
X70100Y-53338D01*
X70099Y-53101D01*
X70061Y-53009D01*
X69991Y-52939D01*
X69900Y-52901D01*
X69801Y-52901D01*
X69662Y-52900D01*
X69600Y-52962D01*
X69600Y-53400D01*
X70038Y-53400D01*
X70100Y-53338D01*
X70100Y-53594D01*
X69406Y-53594D01*
X69406Y-52645D01*
X69376Y-52492D01*
X69376Y-52491D01*
X69289Y-52362D01*
X68626Y-51699D01*
X68638Y-51699D01*
X68895Y-51593D01*
X69000Y-51488D01*
X69103Y-51592D01*
X69360Y-51699D01*
X69638Y-51699D01*
X69895Y-51593D01*
X70000Y-51488D01*
X70103Y-51592D01*
X70360Y-51699D01*
X70638Y-51699D01*
X70895Y-51593D01*
X71000Y-51488D01*
X71103Y-51592D01*
X71360Y-51699D01*
X71601Y-51699D01*
X71601Y-52801D01*
G54D10*
G36*
X72575Y-57775D02*
X64598Y-57775D01*
X64598Y-57041D01*
X64569Y-56809D01*
X64537Y-56733D01*
X64444Y-56697D01*
X64141Y-57000D01*
X64444Y-57303D01*
X64537Y-57267D01*
X64598Y-57041D01*
X64598Y-57775D01*
X64303Y-57775D01*
X64303Y-57444D01*
X64000Y-57141D01*
X63859Y-57282D01*
X63859Y-57000D01*
X63556Y-56697D01*
X63500Y-56718D01*
X63444Y-56697D01*
X63141Y-57000D01*
X63444Y-57303D01*
X63500Y-57281D01*
X63556Y-57303D01*
X63859Y-57000D01*
X63859Y-57282D01*
X63697Y-57444D01*
X63733Y-57537D01*
X63959Y-57598D01*
X64191Y-57569D01*
X64267Y-57537D01*
X64303Y-57444D01*
X64303Y-57775D01*
X63303Y-57775D01*
X63303Y-57444D01*
X63000Y-57141D01*
X62859Y-57282D01*
X62859Y-57000D01*
X62556Y-56697D01*
X62463Y-56733D01*
X62402Y-56959D01*
X62431Y-57191D01*
X62463Y-57267D01*
X62556Y-57303D01*
X62859Y-57000D01*
X62859Y-57282D01*
X62697Y-57444D01*
X62733Y-57537D01*
X62959Y-57598D01*
X63191Y-57569D01*
X63267Y-57537D01*
X63303Y-57444D01*
X63303Y-57775D01*
X50065Y-57775D01*
X61622Y-46217D01*
X61614Y-46261D01*
X61614Y-55014D01*
X61644Y-55167D01*
X61731Y-55297D01*
X62301Y-55867D01*
X62301Y-56138D01*
X62407Y-56395D01*
X62603Y-56592D01*
X62825Y-56684D01*
X63000Y-56859D01*
X63175Y-56683D01*
X63395Y-56593D01*
X63500Y-56488D01*
X63603Y-56592D01*
X63825Y-56684D01*
X64000Y-56859D01*
X64175Y-56683D01*
X64395Y-56593D01*
X64592Y-56397D01*
X64699Y-56140D01*
X64699Y-55862D01*
X64593Y-55605D01*
X64488Y-55499D01*
X64592Y-55397D01*
X64699Y-55140D01*
X64699Y-54862D01*
X64593Y-54605D01*
X64488Y-54499D01*
X64592Y-54397D01*
X64699Y-54140D01*
X64699Y-53862D01*
X64593Y-53605D01*
X64488Y-53499D01*
X64592Y-53397D01*
X64699Y-53140D01*
X64699Y-52900D01*
X67294Y-52900D01*
X67199Y-52901D01*
X67100Y-52901D01*
X67009Y-52939D01*
X66939Y-53009D01*
X66901Y-53101D01*
X66900Y-53338D01*
X66962Y-53400D01*
X67350Y-53400D01*
X67400Y-53400D01*
X67594Y-53400D01*
X67594Y-53600D01*
X67400Y-53600D01*
X67350Y-53600D01*
X66962Y-53600D01*
X66900Y-53662D01*
X66901Y-53899D01*
X66939Y-53991D01*
X66979Y-54031D01*
X66908Y-54103D01*
X66801Y-54360D01*
X66801Y-54638D01*
X66907Y-54895D01*
X67011Y-55000D01*
X66908Y-55103D01*
X66801Y-55360D01*
X66801Y-55638D01*
X66907Y-55895D01*
X67011Y-56000D01*
X66908Y-56103D01*
X66801Y-56360D01*
X66801Y-56638D01*
X66907Y-56895D01*
X67103Y-57092D01*
X67360Y-57199D01*
X67638Y-57199D01*
X67895Y-57093D01*
X68092Y-56897D01*
X68199Y-56640D01*
X68199Y-56466D01*
X69017Y-57284D01*
X69020Y-57288D01*
X69149Y-57374D01*
X69150Y-57375D01*
X69272Y-57398D01*
X69302Y-57405D01*
X69302Y-57404D01*
X69303Y-57405D01*
X69995Y-57405D01*
X70148Y-57375D01*
X70278Y-57288D01*
X70801Y-56765D01*
X70801Y-56919D01*
X70854Y-57047D01*
X70952Y-57146D01*
X71080Y-57199D01*
X71219Y-57199D01*
X71919Y-57199D01*
X72047Y-57146D01*
X72146Y-57048D01*
X72199Y-56920D01*
X72199Y-56781D01*
X72199Y-56081D01*
X72146Y-55953D01*
X72091Y-55897D01*
X72092Y-55897D01*
X72199Y-55640D01*
X72199Y-55362D01*
X72185Y-55329D01*
X72256Y-55282D01*
X72281Y-55255D01*
X72283Y-55254D01*
X72284Y-55254D01*
X72370Y-55125D01*
X72371Y-55124D01*
X72401Y-54971D01*
X72401Y-49665D01*
X72449Y-49616D01*
X72451Y-49615D01*
X72452Y-49615D01*
X72538Y-49486D01*
X72539Y-49485D01*
X72569Y-49332D01*
X72569Y-45169D01*
X72539Y-45016D01*
X72539Y-45015D01*
X72452Y-44886D01*
X72199Y-44633D01*
X72199Y-44362D01*
X72098Y-44117D01*
X72098Y-41541D01*
X72098Y-40541D01*
X72098Y-39541D01*
X72098Y-38541D01*
X72098Y-37541D01*
X72098Y-36541D01*
X72098Y-35541D01*
X72098Y-34541D01*
X72098Y-33541D01*
X72098Y-32541D01*
X72098Y-30041D01*
X72098Y-29041D01*
X72098Y-28041D01*
X72098Y-27041D01*
X72098Y-26041D01*
X72098Y-25041D01*
X72098Y-24041D01*
X72098Y-23041D01*
X72098Y-22041D01*
X72098Y-21041D01*
X72069Y-20809D01*
X72037Y-20733D01*
X71944Y-20697D01*
X71803Y-20838D01*
X71803Y-20556D01*
X71767Y-20463D01*
X71541Y-20402D01*
X71309Y-20431D01*
X71233Y-20463D01*
X71197Y-20556D01*
X71500Y-20859D01*
X71803Y-20556D01*
X71803Y-20838D01*
X71641Y-21000D01*
X71944Y-21303D01*
X72037Y-21267D01*
X72098Y-21041D01*
X72098Y-22041D01*
X72069Y-21809D01*
X72037Y-21733D01*
X71944Y-21697D01*
X71803Y-21838D01*
X71803Y-21556D01*
X71781Y-21500D01*
X71803Y-21444D01*
X71500Y-21141D01*
X71197Y-21444D01*
X71218Y-21500D01*
X71197Y-21556D01*
X71500Y-21859D01*
X71803Y-21556D01*
X71803Y-21838D01*
X71641Y-22000D01*
X71944Y-22303D01*
X72037Y-22267D01*
X72098Y-22041D01*
X72098Y-23041D01*
X72069Y-22809D01*
X72037Y-22733D01*
X71944Y-22697D01*
X71803Y-22838D01*
X71803Y-22556D01*
X71781Y-22500D01*
X71803Y-22444D01*
X71500Y-22141D01*
X71197Y-22444D01*
X71218Y-22500D01*
X71197Y-22556D01*
X71500Y-22859D01*
X71803Y-22556D01*
X71803Y-22838D01*
X71641Y-23000D01*
X71944Y-23303D01*
X72037Y-23267D01*
X72098Y-23041D01*
X72098Y-24041D01*
X72069Y-23809D01*
X72037Y-23733D01*
X71944Y-23697D01*
X71803Y-23838D01*
X71803Y-23556D01*
X71781Y-23500D01*
X71803Y-23444D01*
X71500Y-23141D01*
X71197Y-23444D01*
X71218Y-23500D01*
X71197Y-23556D01*
X71500Y-23859D01*
X71803Y-23556D01*
X71803Y-23838D01*
X71641Y-24000D01*
X71944Y-24303D01*
X72037Y-24267D01*
X72098Y-24041D01*
X72098Y-25041D01*
X72069Y-24809D01*
X72037Y-24733D01*
X71944Y-24697D01*
X71803Y-24838D01*
X71803Y-24556D01*
X71781Y-24500D01*
X71803Y-24444D01*
X71500Y-24141D01*
X71197Y-24444D01*
X71218Y-24500D01*
X71197Y-24556D01*
X71500Y-24859D01*
X71803Y-24556D01*
X71803Y-24838D01*
X71641Y-25000D01*
X71944Y-25303D01*
X72037Y-25267D01*
X72098Y-25041D01*
X72098Y-26041D01*
X72069Y-25809D01*
X72037Y-25733D01*
X71944Y-25697D01*
X71803Y-25838D01*
X71803Y-25556D01*
X71781Y-25500D01*
X71803Y-25444D01*
X71500Y-25141D01*
X71197Y-25444D01*
X71218Y-25500D01*
X71197Y-25556D01*
X71500Y-25859D01*
X71803Y-25556D01*
X71803Y-25838D01*
X71641Y-26000D01*
X71944Y-26303D01*
X72037Y-26267D01*
X72098Y-26041D01*
X72098Y-27041D01*
X72069Y-26809D01*
X72037Y-26733D01*
X71944Y-26697D01*
X71803Y-26838D01*
X71803Y-26556D01*
X71781Y-26500D01*
X71803Y-26444D01*
X71500Y-26141D01*
X71197Y-26444D01*
X71218Y-26500D01*
X71197Y-26556D01*
X71500Y-26859D01*
X71803Y-26556D01*
X71803Y-26838D01*
X71641Y-27000D01*
X71944Y-27303D01*
X72037Y-27267D01*
X72098Y-27041D01*
X72098Y-28041D01*
X72069Y-27809D01*
X72037Y-27733D01*
X71944Y-27697D01*
X71803Y-27838D01*
X71803Y-27556D01*
X71781Y-27500D01*
X71803Y-27444D01*
X71500Y-27141D01*
X71197Y-27444D01*
X71218Y-27500D01*
X71197Y-27556D01*
X71500Y-27859D01*
X71803Y-27556D01*
X71803Y-27838D01*
X71641Y-28000D01*
X71944Y-28303D01*
X72037Y-28267D01*
X72098Y-28041D01*
X72098Y-29041D01*
X72069Y-28809D01*
X72037Y-28733D01*
X71944Y-28697D01*
X71803Y-28838D01*
X71803Y-28556D01*
X71781Y-28500D01*
X71803Y-28444D01*
X71500Y-28141D01*
X71197Y-28444D01*
X71218Y-28500D01*
X71197Y-28556D01*
X71500Y-28859D01*
X71803Y-28556D01*
X71803Y-28838D01*
X71641Y-29000D01*
X71944Y-29303D01*
X72037Y-29267D01*
X72098Y-29041D01*
X72098Y-30041D01*
X72069Y-29809D01*
X72037Y-29733D01*
X71944Y-29697D01*
X71803Y-29838D01*
X71803Y-29556D01*
X71781Y-29500D01*
X71803Y-29444D01*
X71500Y-29141D01*
X71197Y-29444D01*
X71218Y-29500D01*
X71197Y-29556D01*
X71500Y-29859D01*
X71803Y-29556D01*
X71803Y-29838D01*
X71641Y-30000D01*
X71944Y-30303D01*
X72037Y-30267D01*
X72098Y-30041D01*
X72098Y-32541D01*
X72069Y-32309D01*
X72037Y-32233D01*
X71944Y-32197D01*
X71803Y-32338D01*
X71803Y-32056D01*
X71803Y-30444D01*
X71500Y-30141D01*
X71197Y-30444D01*
X71233Y-30537D01*
X71459Y-30598D01*
X71691Y-30569D01*
X71767Y-30537D01*
X71803Y-30444D01*
X71803Y-32056D01*
X71767Y-31963D01*
X71541Y-31902D01*
X71309Y-31931D01*
X71233Y-31963D01*
X71197Y-32056D01*
X71500Y-32359D01*
X71803Y-32056D01*
X71803Y-32338D01*
X71641Y-32500D01*
X71944Y-32803D01*
X72037Y-32767D01*
X72098Y-32541D01*
X72098Y-33541D01*
X72069Y-33309D01*
X72037Y-33233D01*
X71944Y-33197D01*
X71803Y-33338D01*
X71803Y-33056D01*
X71781Y-33000D01*
X71803Y-32944D01*
X71500Y-32641D01*
X71197Y-32944D01*
X71218Y-33000D01*
X71197Y-33056D01*
X71500Y-33359D01*
X71803Y-33056D01*
X71803Y-33338D01*
X71641Y-33500D01*
X71944Y-33803D01*
X72037Y-33767D01*
X72098Y-33541D01*
X72098Y-34541D01*
X72069Y-34309D01*
X72037Y-34233D01*
X71944Y-34197D01*
X71641Y-34500D01*
X71944Y-34803D01*
X72037Y-34767D01*
X72098Y-34541D01*
X72098Y-35541D01*
X72069Y-35309D01*
X72037Y-35233D01*
X71944Y-35197D01*
X71641Y-35500D01*
X71944Y-35803D01*
X72037Y-35767D01*
X72098Y-35541D01*
X72098Y-36541D01*
X72069Y-36309D01*
X72037Y-36233D01*
X71944Y-36197D01*
X71641Y-36500D01*
X71944Y-36803D01*
X72037Y-36767D01*
X72098Y-36541D01*
X72098Y-37541D01*
X72069Y-37309D01*
X72037Y-37233D01*
X71944Y-37197D01*
X71641Y-37500D01*
X71944Y-37803D01*
X72037Y-37767D01*
X72098Y-37541D01*
X72098Y-38541D01*
X72069Y-38309D01*
X72037Y-38233D01*
X71944Y-38197D01*
X71641Y-38500D01*
X71944Y-38803D01*
X72037Y-38767D01*
X72098Y-38541D01*
X72098Y-39541D01*
X72069Y-39309D01*
X72037Y-39233D01*
X71944Y-39197D01*
X71641Y-39500D01*
X71944Y-39803D01*
X72037Y-39767D01*
X72098Y-39541D01*
X72098Y-40541D01*
X72069Y-40309D01*
X72037Y-40233D01*
X71944Y-40197D01*
X71641Y-40500D01*
X71944Y-40803D01*
X72037Y-40767D01*
X72098Y-40541D01*
X72098Y-41541D01*
X72069Y-41309D01*
X72037Y-41233D01*
X71944Y-41197D01*
X71641Y-41500D01*
X71944Y-41803D01*
X72037Y-41767D01*
X72098Y-41541D01*
X72098Y-44117D01*
X72093Y-44105D01*
X71897Y-43908D01*
X71803Y-43868D01*
X71803Y-41944D01*
X71500Y-41641D01*
X71197Y-41944D01*
X71233Y-42037D01*
X71459Y-42098D01*
X71691Y-42069D01*
X71767Y-42037D01*
X71803Y-41944D01*
X71803Y-43868D01*
X71640Y-43801D01*
X71362Y-43801D01*
X71105Y-43907D01*
X70999Y-44011D01*
X70897Y-43908D01*
X70640Y-43801D01*
X70362Y-43801D01*
X70105Y-43907D01*
X69908Y-44103D01*
X69801Y-44360D01*
X69801Y-44638D01*
X69907Y-44895D01*
X70011Y-45000D01*
X69908Y-45103D01*
X69801Y-45360D01*
X69801Y-45638D01*
X69803Y-45644D01*
X69740Y-45708D01*
X69687Y-45786D01*
X69699Y-45725D01*
X69706Y-45695D01*
X69705Y-45694D01*
X69706Y-45694D01*
X69706Y-42859D01*
X70366Y-42199D01*
X70638Y-42199D01*
X70895Y-42093D01*
X71092Y-41897D01*
X71184Y-41674D01*
X71323Y-41535D01*
X71359Y-41500D01*
X71358Y-41499D01*
X71499Y-41358D01*
X71500Y-41359D01*
X71535Y-41323D01*
X71803Y-41056D01*
X71781Y-41000D01*
X71803Y-40944D01*
X71500Y-40641D01*
X71499Y-40641D01*
X71394Y-40536D01*
X71394Y-40464D01*
X71499Y-40358D01*
X71500Y-40359D01*
X71535Y-40323D01*
X71803Y-40056D01*
X71781Y-40000D01*
X71803Y-39944D01*
X71500Y-39641D01*
X71499Y-39641D01*
X71394Y-39536D01*
X71394Y-39464D01*
X71499Y-39358D01*
X71500Y-39359D01*
X71535Y-39323D01*
X71803Y-39056D01*
X71781Y-39000D01*
X71803Y-38944D01*
X71500Y-38641D01*
X71499Y-38641D01*
X71394Y-38536D01*
X71394Y-38464D01*
X71499Y-38358D01*
X71500Y-38359D01*
X71535Y-38323D01*
X71803Y-38056D01*
X71781Y-38000D01*
X71803Y-37944D01*
X71500Y-37641D01*
X71499Y-37641D01*
X71394Y-37536D01*
X71394Y-37464D01*
X71499Y-37358D01*
X71500Y-37359D01*
X71535Y-37323D01*
X71803Y-37056D01*
X71781Y-37000D01*
X71803Y-36944D01*
X71500Y-36641D01*
X71499Y-36641D01*
X71394Y-36536D01*
X71394Y-36464D01*
X71499Y-36358D01*
X71500Y-36359D01*
X71535Y-36323D01*
X71803Y-36056D01*
X71781Y-36000D01*
X71803Y-35944D01*
X71500Y-35641D01*
X71499Y-35641D01*
X71394Y-35536D01*
X71394Y-35464D01*
X71499Y-35358D01*
X71500Y-35359D01*
X71535Y-35323D01*
X71803Y-35056D01*
X71781Y-35000D01*
X71803Y-34944D01*
X71500Y-34641D01*
X71499Y-34641D01*
X71394Y-34536D01*
X71394Y-34464D01*
X71499Y-34358D01*
X71500Y-34359D01*
X71535Y-34323D01*
X71803Y-34056D01*
X71781Y-34000D01*
X71803Y-33944D01*
X71500Y-33641D01*
X71499Y-33641D01*
X71358Y-33500D01*
X71359Y-33500D01*
X71183Y-33324D01*
X71093Y-33105D01*
X70988Y-32999D01*
X71092Y-32897D01*
X71184Y-32674D01*
X71359Y-32500D01*
X71183Y-32324D01*
X71093Y-32105D01*
X70900Y-31911D01*
X70900Y-30588D01*
X71092Y-30397D01*
X71184Y-30174D01*
X71359Y-30000D01*
X71183Y-29824D01*
X71093Y-29605D01*
X70988Y-29499D01*
X71092Y-29397D01*
X71184Y-29174D01*
X71359Y-29000D01*
X71183Y-28824D01*
X71093Y-28605D01*
X70988Y-28499D01*
X71092Y-28397D01*
X71184Y-28174D01*
X71359Y-28000D01*
X71183Y-27824D01*
X71093Y-27605D01*
X70988Y-27499D01*
X71092Y-27397D01*
X71184Y-27174D01*
X71359Y-27000D01*
X71183Y-26824D01*
X71093Y-26605D01*
X70988Y-26499D01*
X71092Y-26397D01*
X71184Y-26174D01*
X71359Y-26000D01*
X71183Y-25824D01*
X71093Y-25605D01*
X70988Y-25499D01*
X71092Y-25397D01*
X71184Y-25174D01*
X71359Y-25000D01*
X71183Y-24824D01*
X71093Y-24605D01*
X70988Y-24499D01*
X71092Y-24397D01*
X71184Y-24174D01*
X71359Y-24000D01*
X71183Y-23824D01*
X71093Y-23605D01*
X70988Y-23499D01*
X71092Y-23397D01*
X71184Y-23174D01*
X71359Y-23000D01*
X71183Y-22824D01*
X71093Y-22605D01*
X70988Y-22499D01*
X71092Y-22397D01*
X71184Y-22174D01*
X71359Y-22000D01*
X71183Y-21824D01*
X71093Y-21605D01*
X70988Y-21499D01*
X71092Y-21397D01*
X71184Y-21174D01*
X71359Y-21000D01*
X71183Y-20824D01*
X71093Y-20605D01*
X70897Y-20408D01*
X70640Y-20301D01*
X70362Y-20301D01*
X70105Y-20407D01*
X69999Y-20511D01*
X69897Y-20408D01*
X69640Y-20301D01*
X69362Y-20301D01*
X69105Y-20407D01*
X68908Y-20603D01*
X68801Y-20860D01*
X68801Y-21138D01*
X68907Y-21395D01*
X69011Y-21500D01*
X68908Y-21603D01*
X68801Y-21860D01*
X68801Y-22133D01*
X56439Y-34494D01*
X56439Y-21770D01*
X56439Y-19710D01*
X50561Y-19710D01*
X50561Y-21770D01*
X50662Y-21770D01*
X50662Y-23470D01*
X56339Y-23470D01*
X56339Y-21770D01*
X56439Y-21770D01*
X56439Y-34494D01*
X55137Y-35796D01*
X55137Y-25176D01*
X54888Y-24574D01*
X54428Y-24113D01*
X53827Y-23864D01*
X53176Y-23863D01*
X52574Y-24112D01*
X52113Y-24572D01*
X51864Y-25173D01*
X51863Y-25824D01*
X52112Y-26426D01*
X52572Y-26887D01*
X53173Y-27136D01*
X53824Y-27137D01*
X54426Y-26888D01*
X54887Y-26428D01*
X55136Y-25827D01*
X55137Y-25176D01*
X55137Y-35796D01*
X44631Y-46302D01*
X44699Y-46140D01*
X44699Y-45862D01*
X44593Y-45605D01*
X44488Y-45499D01*
X44592Y-45397D01*
X44699Y-45140D01*
X44699Y-44862D01*
X44593Y-44605D01*
X44488Y-44499D01*
X44592Y-44397D01*
X44699Y-44140D01*
X44699Y-43862D01*
X44593Y-43605D01*
X44488Y-43499D01*
X44592Y-43397D01*
X44699Y-43140D01*
X44699Y-42862D01*
X44593Y-42605D01*
X44488Y-42499D01*
X44592Y-42397D01*
X44699Y-42140D01*
X44699Y-41862D01*
X44593Y-41605D01*
X44488Y-41499D01*
X44592Y-41397D01*
X44699Y-41140D01*
X44699Y-40862D01*
X44593Y-40605D01*
X44488Y-40499D01*
X44592Y-40397D01*
X44699Y-40140D01*
X44699Y-39862D01*
X44593Y-39605D01*
X44488Y-39499D01*
X44592Y-39397D01*
X44699Y-39140D01*
X44699Y-38862D01*
X44593Y-38605D01*
X44488Y-38499D01*
X44592Y-38397D01*
X44699Y-38140D01*
X44699Y-37862D01*
X44593Y-37605D01*
X44488Y-37499D01*
X44592Y-37397D01*
X44699Y-37140D01*
X44699Y-36862D01*
X44593Y-36605D01*
X44488Y-36499D01*
X44592Y-36397D01*
X44699Y-36140D01*
X44699Y-35862D01*
X44593Y-35605D01*
X44488Y-35499D01*
X44592Y-35397D01*
X44699Y-35140D01*
X44699Y-34862D01*
X44593Y-34605D01*
X44488Y-34499D01*
X44592Y-34397D01*
X44699Y-34140D01*
X44699Y-33862D01*
X44593Y-33605D01*
X44488Y-33499D01*
X44592Y-33397D01*
X44699Y-33140D01*
X44699Y-32862D01*
X44593Y-32605D01*
X44397Y-32408D01*
X44140Y-32301D01*
X43862Y-32301D01*
X43605Y-32407D01*
X43577Y-32434D01*
X43523Y-32379D01*
X43395Y-32326D01*
X43256Y-32326D01*
X42606Y-32326D01*
X42478Y-32379D01*
X42379Y-32477D01*
X42326Y-32605D01*
X42326Y-32614D01*
X42246Y-32630D01*
X42117Y-32717D01*
X42017Y-32817D01*
X41930Y-32947D01*
X41900Y-33100D01*
X41900Y-33834D01*
X40870Y-34864D01*
X40870Y-30853D01*
X40870Y-25946D01*
X38810Y-25946D01*
X38810Y-26233D01*
X37610Y-26233D01*
X37610Y-30566D01*
X38810Y-30566D01*
X38810Y-30853D01*
X40870Y-30853D01*
X40870Y-34864D01*
X39649Y-36085D01*
X39649Y-35861D01*
X39550Y-35622D01*
X39418Y-35490D01*
X39550Y-35358D01*
X39649Y-35119D01*
X39649Y-34861D01*
X39550Y-34622D01*
X39418Y-34490D01*
X39550Y-34358D01*
X39649Y-34119D01*
X39649Y-33861D01*
X39550Y-33622D01*
X39418Y-33490D01*
X39550Y-33358D01*
X39649Y-33119D01*
X39649Y-32861D01*
X39550Y-32622D01*
X39432Y-32504D01*
X39441Y-32501D01*
X39511Y-32431D01*
X39549Y-32339D01*
X39550Y-32152D01*
X39550Y-31828D01*
X39549Y-31641D01*
X39511Y-31549D01*
X39441Y-31479D01*
X39350Y-31441D01*
X39251Y-31441D01*
X39162Y-31440D01*
X39100Y-31502D01*
X39100Y-31890D01*
X39488Y-31890D01*
X39550Y-31828D01*
X39550Y-32152D01*
X39488Y-32090D01*
X39150Y-32090D01*
X39100Y-32090D01*
X38900Y-32090D01*
X38900Y-31890D01*
X38900Y-31502D01*
X38838Y-31440D01*
X38749Y-31441D01*
X38650Y-31441D01*
X38559Y-31479D01*
X38489Y-31549D01*
X38451Y-31641D01*
X38450Y-31828D01*
X38512Y-31890D01*
X38900Y-31890D01*
X38900Y-32090D01*
X38850Y-32090D01*
X38512Y-32090D01*
X38450Y-32152D01*
X38451Y-32339D01*
X38489Y-32431D01*
X38559Y-32501D01*
X38567Y-32504D01*
X38450Y-32622D01*
X38351Y-32861D01*
X38351Y-33119D01*
X38450Y-33358D01*
X38582Y-33490D01*
X38450Y-33622D01*
X38351Y-33861D01*
X38351Y-34119D01*
X38450Y-34358D01*
X38582Y-34490D01*
X38450Y-34622D01*
X38351Y-34861D01*
X38351Y-35119D01*
X38450Y-35358D01*
X38582Y-35490D01*
X38450Y-35622D01*
X38351Y-35861D01*
X38351Y-36119D01*
X38450Y-36358D01*
X38632Y-36540D01*
X38871Y-36639D01*
X39095Y-36639D01*
X38817Y-36917D01*
X38730Y-37047D01*
X38700Y-37200D01*
X38700Y-38700D01*
X38730Y-38853D01*
X38817Y-38983D01*
X39160Y-39326D01*
X39100Y-39387D01*
X39100Y-39750D01*
X39100Y-39800D01*
X39100Y-40000D01*
X38900Y-40000D01*
X38900Y-39800D01*
X38900Y-39387D01*
X38838Y-39325D01*
X38724Y-39326D01*
X38625Y-39326D01*
X38534Y-39364D01*
X38464Y-39434D01*
X38426Y-39526D01*
X38425Y-39738D01*
X38487Y-39800D01*
X38900Y-39800D01*
X38900Y-40000D01*
X38850Y-40000D01*
X38487Y-40000D01*
X38425Y-40062D01*
X38426Y-40274D01*
X38464Y-40366D01*
X38504Y-40406D01*
X38408Y-40503D01*
X38301Y-40760D01*
X38301Y-41038D01*
X38407Y-41295D01*
X38511Y-41400D01*
X38408Y-41503D01*
X38301Y-41760D01*
X38301Y-42038D01*
X38407Y-42295D01*
X38511Y-42400D01*
X38408Y-42503D01*
X38301Y-42760D01*
X38301Y-43038D01*
X38407Y-43295D01*
X38511Y-43400D01*
X38408Y-43503D01*
X38301Y-43760D01*
X38301Y-44038D01*
X38407Y-44295D01*
X38511Y-44400D01*
X38408Y-44503D01*
X38301Y-44760D01*
X38301Y-45038D01*
X38407Y-45295D01*
X38511Y-45400D01*
X38408Y-45503D01*
X38301Y-45760D01*
X38301Y-46038D01*
X38407Y-46295D01*
X38600Y-46488D01*
X38600Y-47411D01*
X38408Y-47603D01*
X38301Y-47860D01*
X38301Y-48138D01*
X38407Y-48395D01*
X38511Y-48500D01*
X38408Y-48603D01*
X38301Y-48860D01*
X38301Y-49138D01*
X38407Y-49395D01*
X38511Y-49500D01*
X38408Y-49603D01*
X38301Y-49860D01*
X38301Y-50138D01*
X38407Y-50395D01*
X38511Y-50500D01*
X38408Y-50603D01*
X38301Y-50860D01*
X38301Y-51138D01*
X38407Y-51395D01*
X38511Y-51500D01*
X38408Y-51603D01*
X38301Y-51860D01*
X38301Y-52138D01*
X38407Y-52395D01*
X38511Y-52500D01*
X38408Y-52603D01*
X38301Y-52860D01*
X38301Y-53138D01*
X38407Y-53395D01*
X38511Y-53500D01*
X38408Y-53603D01*
X38301Y-53860D01*
X38301Y-54138D01*
X38407Y-54395D01*
X38511Y-54500D01*
X38408Y-54603D01*
X38301Y-54860D01*
X38301Y-55138D01*
X38407Y-55395D01*
X38511Y-55500D01*
X38408Y-55603D01*
X38301Y-55860D01*
X38301Y-56138D01*
X38407Y-56395D01*
X38504Y-56493D01*
X38464Y-56534D01*
X38426Y-56626D01*
X38425Y-56838D01*
X38487Y-56900D01*
X38850Y-56900D01*
X38900Y-56900D01*
X39100Y-56900D01*
X39100Y-57100D01*
X39100Y-57150D01*
X39100Y-57513D01*
X39162Y-57575D01*
X39276Y-57574D01*
X39375Y-57574D01*
X39466Y-57536D01*
X39536Y-57466D01*
X39574Y-57374D01*
X39575Y-57162D01*
X39563Y-57150D01*
X39575Y-57150D01*
X39575Y-57141D01*
X40209Y-57775D01*
X39575Y-57775D01*
X38900Y-57775D01*
X38900Y-57513D01*
X38900Y-57100D01*
X38487Y-57100D01*
X38425Y-57162D01*
X38426Y-57374D01*
X38464Y-57466D01*
X38534Y-57536D01*
X38625Y-57574D01*
X38724Y-57574D01*
X38838Y-57575D01*
X38900Y-57513D01*
X38900Y-57775D01*
X34425Y-57775D01*
X34425Y-57600D01*
X34425Y-19425D01*
X72575Y-19425D01*
X72575Y-57775D01*
X72575Y-57775D01*
G37*
G54D20*
X72575Y-57775D02*
X64598Y-57775D01*
X64598Y-57041D01*
X64569Y-56809D01*
X64537Y-56733D01*
X64444Y-56697D01*
X64141Y-57000D01*
X64444Y-57303D01*
X64537Y-57267D01*
X64598Y-57041D01*
X64598Y-57775D01*
X64303Y-57775D01*
X64303Y-57444D01*
X64000Y-57141D01*
X63859Y-57282D01*
X63859Y-57000D01*
X63556Y-56697D01*
X63500Y-56718D01*
X63444Y-56697D01*
X63141Y-57000D01*
X63444Y-57303D01*
X63500Y-57281D01*
X63556Y-57303D01*
X63859Y-57000D01*
X63859Y-57282D01*
X63697Y-57444D01*
X63733Y-57537D01*
X63959Y-57598D01*
X64191Y-57569D01*
X64267Y-57537D01*
X64303Y-57444D01*
X64303Y-57775D01*
X63303Y-57775D01*
X63303Y-57444D01*
X63000Y-57141D01*
X62859Y-57282D01*
X62859Y-57000D01*
X62556Y-56697D01*
X62463Y-56733D01*
X62402Y-56959D01*
X62431Y-57191D01*
X62463Y-57267D01*
X62556Y-57303D01*
X62859Y-57000D01*
X62859Y-57282D01*
X62697Y-57444D01*
X62733Y-57537D01*
X62959Y-57598D01*
X63191Y-57569D01*
X63267Y-57537D01*
X63303Y-57444D01*
X63303Y-57775D01*
X50065Y-57775D01*
X61622Y-46217D01*
X61614Y-46261D01*
X61614Y-55014D01*
X61644Y-55167D01*
X61731Y-55297D01*
X62301Y-55867D01*
X62301Y-56138D01*
X62407Y-56395D01*
X62603Y-56592D01*
X62825Y-56684D01*
X63000Y-56859D01*
X63175Y-56683D01*
X63395Y-56593D01*
X63500Y-56488D01*
X63603Y-56592D01*
X63825Y-56684D01*
X64000Y-56859D01*
X64175Y-56683D01*
X64395Y-56593D01*
X64592Y-56397D01*
X64699Y-56140D01*
X64699Y-55862D01*
X64593Y-55605D01*
X64488Y-55499D01*
X64592Y-55397D01*
X64699Y-55140D01*
X64699Y-54862D01*
X64593Y-54605D01*
X64488Y-54499D01*
X64592Y-54397D01*
X64699Y-54140D01*
X64699Y-53862D01*
X64593Y-53605D01*
X64488Y-53499D01*
X64592Y-53397D01*
X64699Y-53140D01*
X64699Y-52900D01*
X67294Y-52900D01*
X67199Y-52901D01*
X67100Y-52901D01*
X67009Y-52939D01*
X66939Y-53009D01*
X66901Y-53101D01*
X66900Y-53338D01*
X66962Y-53400D01*
X67350Y-53400D01*
X67400Y-53400D01*
X67594Y-53400D01*
X67594Y-53600D01*
X67400Y-53600D01*
X67350Y-53600D01*
X66962Y-53600D01*
X66900Y-53662D01*
X66901Y-53899D01*
X66939Y-53991D01*
X66979Y-54031D01*
X66908Y-54103D01*
X66801Y-54360D01*
X66801Y-54638D01*
X66907Y-54895D01*
X67011Y-55000D01*
X66908Y-55103D01*
X66801Y-55360D01*
X66801Y-55638D01*
X66907Y-55895D01*
X67011Y-56000D01*
X66908Y-56103D01*
X66801Y-56360D01*
X66801Y-56638D01*
X66907Y-56895D01*
X67103Y-57092D01*
X67360Y-57199D01*
X67638Y-57199D01*
X67895Y-57093D01*
X68092Y-56897D01*
X68199Y-56640D01*
X68199Y-56466D01*
X69017Y-57284D01*
X69020Y-57288D01*
X69149Y-57374D01*
X69150Y-57375D01*
X69272Y-57398D01*
X69302Y-57405D01*
X69302Y-57404D01*
X69303Y-57405D01*
X69995Y-57405D01*
X70148Y-57375D01*
X70278Y-57288D01*
X70801Y-56765D01*
X70801Y-56919D01*
X70854Y-57047D01*
X70952Y-57146D01*
X71080Y-57199D01*
X71219Y-57199D01*
X71919Y-57199D01*
X72047Y-57146D01*
X72146Y-57048D01*
X72199Y-56920D01*
X72199Y-56781D01*
X72199Y-56081D01*
X72146Y-55953D01*
X72091Y-55897D01*
X72092Y-55897D01*
X72199Y-55640D01*
X72199Y-55362D01*
X72185Y-55329D01*
X72256Y-55282D01*
X72281Y-55255D01*
X72283Y-55254D01*
X72284Y-55254D01*
X72370Y-55125D01*
X72371Y-55124D01*
X72401Y-54971D01*
X72401Y-49665D01*
X72449Y-49616D01*
X72451Y-49615D01*
X72452Y-49615D01*
X72538Y-49486D01*
X72539Y-49485D01*
X72569Y-49332D01*
X72569Y-45169D01*
X72539Y-45016D01*
X72539Y-45015D01*
X72452Y-44886D01*
X72199Y-44633D01*
X72199Y-44362D01*
X72098Y-44117D01*
X72098Y-41541D01*
X72098Y-40541D01*
X72098Y-39541D01*
X72098Y-38541D01*
X72098Y-37541D01*
X72098Y-36541D01*
X72098Y-35541D01*
X72098Y-34541D01*
X72098Y-33541D01*
X72098Y-32541D01*
X72098Y-30041D01*
X72098Y-29041D01*
X72098Y-28041D01*
X72098Y-27041D01*
X72098Y-26041D01*
X72098Y-25041D01*
X72098Y-24041D01*
X72098Y-23041D01*
X72098Y-22041D01*
X72098Y-21041D01*
X72069Y-20809D01*
X72037Y-20733D01*
X71944Y-20697D01*
X71803Y-20838D01*
X71803Y-20556D01*
X71767Y-20463D01*
X71541Y-20402D01*
X71309Y-20431D01*
X71233Y-20463D01*
X71197Y-20556D01*
X71500Y-20859D01*
X71803Y-20556D01*
X71803Y-20838D01*
X71641Y-21000D01*
X71944Y-21303D01*
X72037Y-21267D01*
X72098Y-21041D01*
X72098Y-22041D01*
X72069Y-21809D01*
X72037Y-21733D01*
X71944Y-21697D01*
X71803Y-21838D01*
X71803Y-21556D01*
X71781Y-21500D01*
X71803Y-21444D01*
X71500Y-21141D01*
X71197Y-21444D01*
X71218Y-21500D01*
X71197Y-21556D01*
X71500Y-21859D01*
X71803Y-21556D01*
X71803Y-21838D01*
X71641Y-22000D01*
X71944Y-22303D01*
X72037Y-22267D01*
X72098Y-22041D01*
X72098Y-23041D01*
X72069Y-22809D01*
X72037Y-22733D01*
X71944Y-22697D01*
X71803Y-22838D01*
X71803Y-22556D01*
X71781Y-22500D01*
X71803Y-22444D01*
X71500Y-22141D01*
X71197Y-22444D01*
X71218Y-22500D01*
X71197Y-22556D01*
X71500Y-22859D01*
X71803Y-22556D01*
X71803Y-22838D01*
X71641Y-23000D01*
X71944Y-23303D01*
X72037Y-23267D01*
X72098Y-23041D01*
X72098Y-24041D01*
X72069Y-23809D01*
X72037Y-23733D01*
X71944Y-23697D01*
X71803Y-23838D01*
X71803Y-23556D01*
X71781Y-23500D01*
X71803Y-23444D01*
X71500Y-23141D01*
X71197Y-23444D01*
X71218Y-23500D01*
X71197Y-23556D01*
X71500Y-23859D01*
X71803Y-23556D01*
X71803Y-23838D01*
X71641Y-24000D01*
X71944Y-24303D01*
X72037Y-24267D01*
X72098Y-24041D01*
X72098Y-25041D01*
X72069Y-24809D01*
X72037Y-24733D01*
X71944Y-24697D01*
X71803Y-24838D01*
X71803Y-24556D01*
X71781Y-24500D01*
X71803Y-24444D01*
X71500Y-24141D01*
X71197Y-24444D01*
X71218Y-24500D01*
X71197Y-24556D01*
X71500Y-24859D01*
X71803Y-24556D01*
X71803Y-24838D01*
X71641Y-25000D01*
X71944Y-25303D01*
X72037Y-25267D01*
X72098Y-25041D01*
X72098Y-26041D01*
X72069Y-25809D01*
X72037Y-25733D01*
X71944Y-25697D01*
X71803Y-25838D01*
X71803Y-25556D01*
X71781Y-25500D01*
X71803Y-25444D01*
X71500Y-25141D01*
X71197Y-25444D01*
X71218Y-25500D01*
X71197Y-25556D01*
X71500Y-25859D01*
X71803Y-25556D01*
X71803Y-25838D01*
X71641Y-26000D01*
X71944Y-26303D01*
X72037Y-26267D01*
X72098Y-26041D01*
X72098Y-27041D01*
X72069Y-26809D01*
X72037Y-26733D01*
X71944Y-26697D01*
X71803Y-26838D01*
X71803Y-26556D01*
X71781Y-26500D01*
X71803Y-26444D01*
X71500Y-26141D01*
X71197Y-26444D01*
X71218Y-26500D01*
X71197Y-26556D01*
X71500Y-26859D01*
X71803Y-26556D01*
X71803Y-26838D01*
X71641Y-27000D01*
X71944Y-27303D01*
X72037Y-27267D01*
X72098Y-27041D01*
X72098Y-28041D01*
X72069Y-27809D01*
X72037Y-27733D01*
X71944Y-27697D01*
X71803Y-27838D01*
X71803Y-27556D01*
X71781Y-27500D01*
X71803Y-27444D01*
X71500Y-27141D01*
X71197Y-27444D01*
X71218Y-27500D01*
X71197Y-27556D01*
X71500Y-27859D01*
X71803Y-27556D01*
X71803Y-27838D01*
X71641Y-28000D01*
X71944Y-28303D01*
X72037Y-28267D01*
X72098Y-28041D01*
X72098Y-29041D01*
X72069Y-28809D01*
X72037Y-28733D01*
X71944Y-28697D01*
X71803Y-28838D01*
X71803Y-28556D01*
X71781Y-28500D01*
X71803Y-28444D01*
X71500Y-28141D01*
X71197Y-28444D01*
X71218Y-28500D01*
X71197Y-28556D01*
X71500Y-28859D01*
X71803Y-28556D01*
X71803Y-28838D01*
X71641Y-29000D01*
X71944Y-29303D01*
X72037Y-29267D01*
X72098Y-29041D01*
X72098Y-30041D01*
X72069Y-29809D01*
X72037Y-29733D01*
X71944Y-29697D01*
X71803Y-29838D01*
X71803Y-29556D01*
X71781Y-29500D01*
X71803Y-29444D01*
X71500Y-29141D01*
X71197Y-29444D01*
X71218Y-29500D01*
X71197Y-29556D01*
X71500Y-29859D01*
X71803Y-29556D01*
X71803Y-29838D01*
X71641Y-30000D01*
X71944Y-30303D01*
X72037Y-30267D01*
X72098Y-30041D01*
X72098Y-32541D01*
X72069Y-32309D01*
X72037Y-32233D01*
X71944Y-32197D01*
X71803Y-32338D01*
X71803Y-32056D01*
X71803Y-30444D01*
X71500Y-30141D01*
X71197Y-30444D01*
X71233Y-30537D01*
X71459Y-30598D01*
X71691Y-30569D01*
X71767Y-30537D01*
X71803Y-30444D01*
X71803Y-32056D01*
X71767Y-31963D01*
X71541Y-31902D01*
X71309Y-31931D01*
X71233Y-31963D01*
X71197Y-32056D01*
X71500Y-32359D01*
X71803Y-32056D01*
X71803Y-32338D01*
X71641Y-32500D01*
X71944Y-32803D01*
X72037Y-32767D01*
X72098Y-32541D01*
X72098Y-33541D01*
X72069Y-33309D01*
X72037Y-33233D01*
X71944Y-33197D01*
X71803Y-33338D01*
X71803Y-33056D01*
X71781Y-33000D01*
X71803Y-32944D01*
X71500Y-32641D01*
X71197Y-32944D01*
X71218Y-33000D01*
X71197Y-33056D01*
X71500Y-33359D01*
X71803Y-33056D01*
X71803Y-33338D01*
X71641Y-33500D01*
X71944Y-33803D01*
X72037Y-33767D01*
X72098Y-33541D01*
X72098Y-34541D01*
X72069Y-34309D01*
X72037Y-34233D01*
X71944Y-34197D01*
X71641Y-34500D01*
X71944Y-34803D01*
X72037Y-34767D01*
X72098Y-34541D01*
X72098Y-35541D01*
X72069Y-35309D01*
X72037Y-35233D01*
X71944Y-35197D01*
X71641Y-35500D01*
X71944Y-35803D01*
X72037Y-35767D01*
X72098Y-35541D01*
X72098Y-36541D01*
X72069Y-36309D01*
X72037Y-36233D01*
X71944Y-36197D01*
X71641Y-36500D01*
X71944Y-36803D01*
X72037Y-36767D01*
X72098Y-36541D01*
X72098Y-37541D01*
X72069Y-37309D01*
X72037Y-37233D01*
X71944Y-37197D01*
X71641Y-37500D01*
X71944Y-37803D01*
X72037Y-37767D01*
X72098Y-37541D01*
X72098Y-38541D01*
X72069Y-38309D01*
X72037Y-38233D01*
X71944Y-38197D01*
X71641Y-38500D01*
X71944Y-38803D01*
X72037Y-38767D01*
X72098Y-38541D01*
X72098Y-39541D01*
X72069Y-39309D01*
X72037Y-39233D01*
X71944Y-39197D01*
X71641Y-39500D01*
X71944Y-39803D01*
X72037Y-39767D01*
X72098Y-39541D01*
X72098Y-40541D01*
X72069Y-40309D01*
X72037Y-40233D01*
X71944Y-40197D01*
X71641Y-40500D01*
X71944Y-40803D01*
X72037Y-40767D01*
X72098Y-40541D01*
X72098Y-41541D01*
X72069Y-41309D01*
X72037Y-41233D01*
X71944Y-41197D01*
X71641Y-41500D01*
X71944Y-41803D01*
X72037Y-41767D01*
X72098Y-41541D01*
X72098Y-44117D01*
X72093Y-44105D01*
X71897Y-43908D01*
X71803Y-43868D01*
X71803Y-41944D01*
X71500Y-41641D01*
X71197Y-41944D01*
X71233Y-42037D01*
X71459Y-42098D01*
X71691Y-42069D01*
X71767Y-42037D01*
X71803Y-41944D01*
X71803Y-43868D01*
X71640Y-43801D01*
X71362Y-43801D01*
X71105Y-43907D01*
X70999Y-44011D01*
X70897Y-43908D01*
X70640Y-43801D01*
X70362Y-43801D01*
X70105Y-43907D01*
X69908Y-44103D01*
X69801Y-44360D01*
X69801Y-44638D01*
X69907Y-44895D01*
X70011Y-45000D01*
X69908Y-45103D01*
X69801Y-45360D01*
X69801Y-45638D01*
X69803Y-45644D01*
X69740Y-45708D01*
X69687Y-45786D01*
X69699Y-45725D01*
X69706Y-45695D01*
X69705Y-45694D01*
X69706Y-45694D01*
X69706Y-42859D01*
X70366Y-42199D01*
X70638Y-42199D01*
X70895Y-42093D01*
X71092Y-41897D01*
X71184Y-41674D01*
X71323Y-41535D01*
X71359Y-41500D01*
X71358Y-41499D01*
X71499Y-41358D01*
X71500Y-41359D01*
X71535Y-41323D01*
X71803Y-41056D01*
X71781Y-41000D01*
X71803Y-40944D01*
X71500Y-40641D01*
X71499Y-40641D01*
X71394Y-40536D01*
X71394Y-40464D01*
X71499Y-40358D01*
X71500Y-40359D01*
X71535Y-40323D01*
X71803Y-40056D01*
X71781Y-40000D01*
X71803Y-39944D01*
X71500Y-39641D01*
X71499Y-39641D01*
X71394Y-39536D01*
X71394Y-39464D01*
X71499Y-39358D01*
X71500Y-39359D01*
X71535Y-39323D01*
X71803Y-39056D01*
X71781Y-39000D01*
X71803Y-38944D01*
X71500Y-38641D01*
X71499Y-38641D01*
X71394Y-38536D01*
X71394Y-38464D01*
X71499Y-38358D01*
X71500Y-38359D01*
X71535Y-38323D01*
X71803Y-38056D01*
X71781Y-38000D01*
X71803Y-37944D01*
X71500Y-37641D01*
X71499Y-37641D01*
X71394Y-37536D01*
X71394Y-37464D01*
X71499Y-37358D01*
X71500Y-37359D01*
X71535Y-37323D01*
X71803Y-37056D01*
X71781Y-37000D01*
X71803Y-36944D01*
X71500Y-36641D01*
X71499Y-36641D01*
X71394Y-36536D01*
X71394Y-36464D01*
X71499Y-36358D01*
X71500Y-36359D01*
X71535Y-36323D01*
X71803Y-36056D01*
X71781Y-36000D01*
X71803Y-35944D01*
X71500Y-35641D01*
X71499Y-35641D01*
X71394Y-35536D01*
X71394Y-35464D01*
X71499Y-35358D01*
X71500Y-35359D01*
X71535Y-35323D01*
X71803Y-35056D01*
X71781Y-35000D01*
X71803Y-34944D01*
X71500Y-34641D01*
X71499Y-34641D01*
X71394Y-34536D01*
X71394Y-34464D01*
X71499Y-34358D01*
X71500Y-34359D01*
X71535Y-34323D01*
X71803Y-34056D01*
X71781Y-34000D01*
X71803Y-33944D01*
X71500Y-33641D01*
X71499Y-33641D01*
X71358Y-33500D01*
X71359Y-33500D01*
X71183Y-33324D01*
X71093Y-33105D01*
X70988Y-32999D01*
X71092Y-32897D01*
X71184Y-32674D01*
X71359Y-32500D01*
X71183Y-32324D01*
X71093Y-32105D01*
X70900Y-31911D01*
X70900Y-30588D01*
X71092Y-30397D01*
X71184Y-30174D01*
X71359Y-30000D01*
X71183Y-29824D01*
X71093Y-29605D01*
X70988Y-29499D01*
X71092Y-29397D01*
X71184Y-29174D01*
X71359Y-29000D01*
X71183Y-28824D01*
X71093Y-28605D01*
X70988Y-28499D01*
X71092Y-28397D01*
X71184Y-28174D01*
X71359Y-28000D01*
X71183Y-27824D01*
X71093Y-27605D01*
X70988Y-27499D01*
X71092Y-27397D01*
X71184Y-27174D01*
X71359Y-27000D01*
X71183Y-26824D01*
X71093Y-26605D01*
X70988Y-26499D01*
X71092Y-26397D01*
X71184Y-26174D01*
X71359Y-26000D01*
X71183Y-25824D01*
X71093Y-25605D01*
X70988Y-25499D01*
X71092Y-25397D01*
X71184Y-25174D01*
X71359Y-25000D01*
X71183Y-24824D01*
X71093Y-24605D01*
X70988Y-24499D01*
X71092Y-24397D01*
X71184Y-24174D01*
X71359Y-24000D01*
X71183Y-23824D01*
X71093Y-23605D01*
X70988Y-23499D01*
X71092Y-23397D01*
X71184Y-23174D01*
X71359Y-23000D01*
X71183Y-22824D01*
X71093Y-22605D01*
X70988Y-22499D01*
X71092Y-22397D01*
X71184Y-22174D01*
X71359Y-22000D01*
X71183Y-21824D01*
X71093Y-21605D01*
X70988Y-21499D01*
X71092Y-21397D01*
X71184Y-21174D01*
X71359Y-21000D01*
X71183Y-20824D01*
X71093Y-20605D01*
X70897Y-20408D01*
X70640Y-20301D01*
X70362Y-20301D01*
X70105Y-20407D01*
X69999Y-20511D01*
X69897Y-20408D01*
X69640Y-20301D01*
X69362Y-20301D01*
X69105Y-20407D01*
X68908Y-20603D01*
X68801Y-20860D01*
X68801Y-21138D01*
X68907Y-21395D01*
X69011Y-21500D01*
X68908Y-21603D01*
X68801Y-21860D01*
X68801Y-22133D01*
X56439Y-34494D01*
X56439Y-21770D01*
X56439Y-19710D01*
X50561Y-19710D01*
X50561Y-21770D01*
X50662Y-21770D01*
X50662Y-23470D01*
X56339Y-23470D01*
X56339Y-21770D01*
X56439Y-21770D01*
X56439Y-34494D01*
X55137Y-35796D01*
X55137Y-25176D01*
X54888Y-24574D01*
X54428Y-24113D01*
X53827Y-23864D01*
X53176Y-23863D01*
X52574Y-24112D01*
X52113Y-24572D01*
X51864Y-25173D01*
X51863Y-25824D01*
X52112Y-26426D01*
X52572Y-26887D01*
X53173Y-27136D01*
X53824Y-27137D01*
X54426Y-26888D01*
X54887Y-26428D01*
X55136Y-25827D01*
X55137Y-25176D01*
X55137Y-35796D01*
X44631Y-46302D01*
X44699Y-46140D01*
X44699Y-45862D01*
X44593Y-45605D01*
X44488Y-45499D01*
X44592Y-45397D01*
X44699Y-45140D01*
X44699Y-44862D01*
X44593Y-44605D01*
X44488Y-44499D01*
X44592Y-44397D01*
X44699Y-44140D01*
X44699Y-43862D01*
X44593Y-43605D01*
X44488Y-43499D01*
X44592Y-43397D01*
X44699Y-43140D01*
X44699Y-42862D01*
X44593Y-42605D01*
X44488Y-42499D01*
X44592Y-42397D01*
X44699Y-42140D01*
X44699Y-41862D01*
X44593Y-41605D01*
X44488Y-41499D01*
X44592Y-41397D01*
X44699Y-41140D01*
X44699Y-40862D01*
X44593Y-40605D01*
X44488Y-40499D01*
X44592Y-40397D01*
X44699Y-40140D01*
X44699Y-39862D01*
X44593Y-39605D01*
X44488Y-39499D01*
X44592Y-39397D01*
X44699Y-39140D01*
X44699Y-38862D01*
X44593Y-38605D01*
X44488Y-38499D01*
X44592Y-38397D01*
X44699Y-38140D01*
X44699Y-37862D01*
X44593Y-37605D01*
X44488Y-37499D01*
X44592Y-37397D01*
X44699Y-37140D01*
X44699Y-36862D01*
X44593Y-36605D01*
X44488Y-36499D01*
X44592Y-36397D01*
X44699Y-36140D01*
X44699Y-35862D01*
X44593Y-35605D01*
X44488Y-35499D01*
X44592Y-35397D01*
X44699Y-35140D01*
X44699Y-34862D01*
X44593Y-34605D01*
X44488Y-34499D01*
X44592Y-34397D01*
X44699Y-34140D01*
X44699Y-33862D01*
X44593Y-33605D01*
X44488Y-33499D01*
X44592Y-33397D01*
X44699Y-33140D01*
X44699Y-32862D01*
X44593Y-32605D01*
X44397Y-32408D01*
X44140Y-32301D01*
X43862Y-32301D01*
X43605Y-32407D01*
X43577Y-32434D01*
X43523Y-32379D01*
X43395Y-32326D01*
X43256Y-32326D01*
X42606Y-32326D01*
X42478Y-32379D01*
X42379Y-32477D01*
X42326Y-32605D01*
X42326Y-32614D01*
X42246Y-32630D01*
X42117Y-32717D01*
X42017Y-32817D01*
X41930Y-32947D01*
X41900Y-33100D01*
X41900Y-33834D01*
X40870Y-34864D01*
X40870Y-30853D01*
X40870Y-25946D01*
X38810Y-25946D01*
X38810Y-26233D01*
X37610Y-26233D01*
X37610Y-30566D01*
X38810Y-30566D01*
X38810Y-30853D01*
X40870Y-30853D01*
X40870Y-34864D01*
X39649Y-36085D01*
X39649Y-35861D01*
X39550Y-35622D01*
X39418Y-35490D01*
X39550Y-35358D01*
X39649Y-35119D01*
X39649Y-34861D01*
X39550Y-34622D01*
X39418Y-34490D01*
X39550Y-34358D01*
X39649Y-34119D01*
X39649Y-33861D01*
X39550Y-33622D01*
X39418Y-33490D01*
X39550Y-33358D01*
X39649Y-33119D01*
X39649Y-32861D01*
X39550Y-32622D01*
X39432Y-32504D01*
X39441Y-32501D01*
X39511Y-32431D01*
X39549Y-32339D01*
X39550Y-32152D01*
X39550Y-31828D01*
X39549Y-31641D01*
X39511Y-31549D01*
X39441Y-31479D01*
X39350Y-31441D01*
X39251Y-31441D01*
X39162Y-31440D01*
X39100Y-31502D01*
X39100Y-31890D01*
X39488Y-31890D01*
X39550Y-31828D01*
X39550Y-32152D01*
X39488Y-32090D01*
X39150Y-32090D01*
X39100Y-32090D01*
X38900Y-32090D01*
X38900Y-31890D01*
X38900Y-31502D01*
X38838Y-31440D01*
X38749Y-31441D01*
X38650Y-31441D01*
X38559Y-31479D01*
X38489Y-31549D01*
X38451Y-31641D01*
X38450Y-31828D01*
X38512Y-31890D01*
X38900Y-31890D01*
X38900Y-32090D01*
X38850Y-32090D01*
X38512Y-32090D01*
X38450Y-32152D01*
X38451Y-32339D01*
X38489Y-32431D01*
X38559Y-32501D01*
X38567Y-32504D01*
X38450Y-32622D01*
X38351Y-32861D01*
X38351Y-33119D01*
X38450Y-33358D01*
X38582Y-33490D01*
X38450Y-33622D01*
X38351Y-33861D01*
X38351Y-34119D01*
X38450Y-34358D01*
X38582Y-34490D01*
X38450Y-34622D01*
X38351Y-34861D01*
X38351Y-35119D01*
X38450Y-35358D01*
X38582Y-35490D01*
X38450Y-35622D01*
X38351Y-35861D01*
X38351Y-36119D01*
X38450Y-36358D01*
X38632Y-36540D01*
X38871Y-36639D01*
X39095Y-36639D01*
X38817Y-36917D01*
X38730Y-37047D01*
X38700Y-37200D01*
X38700Y-38700D01*
X38730Y-38853D01*
X38817Y-38983D01*
X39160Y-39326D01*
X39100Y-39387D01*
X39100Y-39750D01*
X39100Y-39800D01*
X39100Y-40000D01*
X38900Y-40000D01*
X38900Y-39800D01*
X38900Y-39387D01*
X38838Y-39325D01*
X38724Y-39326D01*
X38625Y-39326D01*
X38534Y-39364D01*
X38464Y-39434D01*
X38426Y-39526D01*
X38425Y-39738D01*
X38487Y-39800D01*
X38900Y-39800D01*
X38900Y-40000D01*
X38850Y-40000D01*
X38487Y-40000D01*
X38425Y-40062D01*
X38426Y-40274D01*
X38464Y-40366D01*
X38504Y-40406D01*
X38408Y-40503D01*
X38301Y-40760D01*
X38301Y-41038D01*
X38407Y-41295D01*
X38511Y-41400D01*
X38408Y-41503D01*
X38301Y-41760D01*
X38301Y-42038D01*
X38407Y-42295D01*
X38511Y-42400D01*
X38408Y-42503D01*
X38301Y-42760D01*
X38301Y-43038D01*
X38407Y-43295D01*
X38511Y-43400D01*
X38408Y-43503D01*
X38301Y-43760D01*
X38301Y-44038D01*
X38407Y-44295D01*
X38511Y-44400D01*
X38408Y-44503D01*
X38301Y-44760D01*
X38301Y-45038D01*
X38407Y-45295D01*
X38511Y-45400D01*
X38408Y-45503D01*
X38301Y-45760D01*
X38301Y-46038D01*
X38407Y-46295D01*
X38600Y-46488D01*
X38600Y-47411D01*
X38408Y-47603D01*
X38301Y-47860D01*
X38301Y-48138D01*
X38407Y-48395D01*
X38511Y-48500D01*
X38408Y-48603D01*
X38301Y-48860D01*
X38301Y-49138D01*
X38407Y-49395D01*
X38511Y-49500D01*
X38408Y-49603D01*
X38301Y-49860D01*
X38301Y-50138D01*
X38407Y-50395D01*
X38511Y-50500D01*
X38408Y-50603D01*
X38301Y-50860D01*
X38301Y-51138D01*
X38407Y-51395D01*
X38511Y-51500D01*
X38408Y-51603D01*
X38301Y-51860D01*
X38301Y-52138D01*
X38407Y-52395D01*
X38511Y-52500D01*
X38408Y-52603D01*
X38301Y-52860D01*
X38301Y-53138D01*
X38407Y-53395D01*
X38511Y-53500D01*
X38408Y-53603D01*
X38301Y-53860D01*
X38301Y-54138D01*
X38407Y-54395D01*
X38511Y-54500D01*
X38408Y-54603D01*
X38301Y-54860D01*
X38301Y-55138D01*
X38407Y-55395D01*
X38511Y-55500D01*
X38408Y-55603D01*
X38301Y-55860D01*
X38301Y-56138D01*
X38407Y-56395D01*
X38504Y-56493D01*
X38464Y-56534D01*
X38426Y-56626D01*
X38425Y-56838D01*
X38487Y-56900D01*
X38850Y-56900D01*
X38900Y-56900D01*
X39100Y-56900D01*
X39100Y-57100D01*
X39100Y-57150D01*
X39100Y-57513D01*
X39162Y-57575D01*
X39276Y-57574D01*
X39375Y-57574D01*
X39466Y-57536D01*
X39536Y-57466D01*
X39574Y-57374D01*
X39575Y-57162D01*
X39563Y-57150D01*
X39575Y-57150D01*
X39575Y-57141D01*
X40209Y-57775D01*
X39575Y-57775D01*
X38900Y-57775D01*
X38900Y-57513D01*
X38900Y-57100D01*
X38487Y-57100D01*
X38425Y-57162D01*
X38426Y-57374D01*
X38464Y-57466D01*
X38534Y-57536D01*
X38625Y-57574D01*
X38724Y-57574D01*
X38838Y-57575D01*
X38900Y-57513D01*
X38900Y-57775D01*
X34425Y-57775D01*
X34425Y-57600D01*
X34425Y-19425D01*
X72575Y-19425D01*
X72575Y-57775D01*
M02*
