G04 (created by PCBNEW-RS274X (2012-01-19 BZR 3256)-stable) date 5/8/2013 11:12:38 PM*
G01*
G70*
G90*
%MOIN*%
G04 Gerber Fmt 3.4, Leading zero omitted, Abs format*
%FSLAX34Y34*%
G04 APERTURE LIST*
%ADD10C,0.000100*%
%ADD11C,0.015000*%
%ADD12R,0.085000X0.085000*%
%ADD13C,0.090000*%
%ADD14C,0.180000*%
%ADD15R,0.090000X0.090000*%
%ADD16R,0.055000X0.075000*%
%ADD17R,0.080000X0.080000*%
%ADD18C,0.080000*%
G04 APERTURE END LIST*
G54D10*
G54D11*
X73000Y-58200D02*
X72600Y-58200D01*
X73000Y-57800D02*
X73000Y-58200D01*
X34000Y-57600D02*
X34000Y-58200D01*
X73000Y-19000D02*
X34000Y-19000D01*
X73000Y-58000D02*
X73000Y-19000D01*
X34000Y-58200D02*
X73000Y-58200D01*
X34000Y-19000D02*
X34000Y-58000D01*
G54D12*
X43000Y-33000D03*
G54D13*
X44000Y-33000D03*
X43000Y-34000D03*
X44000Y-34000D03*
X44000Y-35000D03*
X43000Y-35000D03*
X44000Y-36000D03*
X43000Y-36000D03*
X44000Y-37000D03*
X43000Y-37000D03*
X44000Y-38000D03*
X43000Y-38000D03*
X44000Y-39000D03*
X43000Y-39000D03*
X44000Y-40000D03*
X43000Y-40000D03*
X44000Y-41000D03*
X43000Y-41000D03*
X44000Y-42000D03*
X43000Y-42000D03*
X44000Y-43000D03*
X43000Y-43000D03*
X44000Y-44000D03*
X43000Y-44000D03*
X44000Y-45000D03*
X43000Y-45000D03*
X44000Y-46000D03*
X43000Y-46000D03*
X44000Y-47000D03*
X43000Y-47000D03*
X44000Y-48000D03*
X43000Y-48000D03*
X44000Y-49000D03*
X43000Y-49000D03*
X44000Y-50000D03*
X43000Y-50000D03*
X44000Y-51000D03*
X43000Y-51000D03*
X44000Y-52000D03*
X43000Y-52000D03*
X44000Y-53000D03*
X43000Y-53000D03*
X44000Y-54000D03*
X43000Y-54000D03*
X44000Y-55000D03*
X43000Y-55000D03*
X44000Y-56000D03*
X43000Y-56000D03*
X44000Y-57000D03*
X43000Y-57000D03*
X63000Y-57000D03*
X64000Y-57000D03*
X63000Y-56000D03*
X64000Y-56000D03*
X63000Y-55000D03*
X64000Y-55000D03*
X63000Y-54000D03*
X64000Y-54000D03*
X63000Y-53000D03*
X64000Y-53000D03*
X63000Y-52000D03*
X64000Y-52000D03*
X63000Y-51000D03*
X64000Y-51000D03*
X63000Y-50000D03*
X64000Y-50000D03*
X63000Y-49000D03*
X64000Y-49000D03*
X63000Y-48000D03*
X64000Y-48000D03*
X63000Y-47000D03*
X64000Y-47000D03*
X63000Y-46000D03*
X64000Y-46000D03*
X63000Y-45000D03*
X64000Y-45000D03*
X63000Y-44000D03*
X64000Y-44000D03*
X63000Y-43000D03*
X64000Y-43000D03*
X63000Y-42000D03*
X64000Y-42000D03*
X63000Y-41000D03*
X64000Y-41000D03*
X63000Y-40000D03*
X64000Y-40000D03*
X63000Y-39000D03*
X64000Y-39000D03*
X63000Y-38000D03*
X64000Y-38000D03*
X63000Y-37000D03*
X64000Y-37000D03*
X63000Y-36000D03*
X64000Y-36000D03*
X63000Y-35000D03*
X64000Y-35000D03*
X63000Y-34000D03*
X64000Y-34000D03*
G54D12*
X63000Y-33000D03*
G54D13*
X64000Y-33000D03*
X69500Y-32500D03*
X69500Y-33500D03*
X69500Y-34500D03*
X69500Y-35500D03*
X69500Y-36500D03*
X69500Y-37500D03*
X69500Y-38500D03*
X69500Y-39500D03*
X69500Y-40500D03*
X69500Y-41500D03*
X70500Y-32500D03*
X70500Y-33500D03*
X70500Y-34500D03*
X70500Y-35500D03*
X70500Y-36500D03*
X70500Y-37500D03*
X70500Y-38500D03*
X70500Y-39500D03*
X70500Y-40500D03*
X70500Y-41500D03*
X71500Y-32500D03*
X71500Y-33500D03*
X71500Y-34500D03*
X71500Y-35500D03*
X71500Y-36500D03*
X71500Y-37500D03*
X71500Y-38500D03*
X71500Y-39500D03*
X71500Y-40500D03*
X71500Y-41500D03*
X69500Y-21000D03*
X69500Y-22000D03*
X69500Y-23000D03*
X69500Y-24000D03*
X69500Y-25000D03*
X69500Y-26000D03*
X69500Y-27000D03*
X69500Y-28000D03*
X69500Y-29000D03*
X69500Y-30000D03*
X70500Y-21000D03*
X70500Y-22000D03*
X70500Y-23000D03*
X70500Y-24000D03*
X70500Y-25000D03*
X70500Y-26000D03*
X70500Y-27000D03*
X70500Y-28000D03*
X70500Y-29000D03*
X70500Y-30000D03*
X71500Y-21000D03*
X71500Y-22000D03*
X71500Y-23000D03*
X71500Y-24000D03*
X71500Y-25000D03*
X71500Y-26000D03*
X71500Y-27000D03*
X71500Y-28000D03*
X71500Y-29000D03*
X71500Y-30000D03*
G54D14*
X53500Y-25500D03*
X66000Y-38000D03*
G54D15*
X71500Y-48000D03*
G54D13*
X71500Y-49000D03*
X71500Y-50000D03*
X71500Y-51000D03*
G54D15*
X70500Y-48000D03*
G54D13*
X70500Y-49000D03*
X70500Y-50000D03*
X70500Y-51000D03*
G54D15*
X69500Y-48000D03*
G54D13*
X69500Y-49000D03*
X69500Y-50000D03*
X69500Y-51000D03*
G54D15*
X68500Y-48000D03*
G54D13*
X68500Y-49000D03*
X68500Y-50000D03*
X68500Y-51000D03*
G54D15*
X67500Y-48000D03*
G54D13*
X67500Y-49000D03*
X67500Y-50000D03*
X67500Y-51000D03*
X71500Y-44500D03*
X71500Y-45500D03*
X71500Y-46500D03*
X70500Y-44500D03*
X70500Y-45500D03*
X70500Y-46500D03*
X68500Y-44500D03*
X68500Y-45500D03*
X68500Y-46500D03*
X67500Y-44500D03*
X67500Y-45500D03*
X67500Y-46500D03*
G54D12*
X39000Y-57000D03*
G54D13*
X39000Y-56000D03*
X39000Y-55000D03*
X39000Y-54000D03*
X39000Y-53000D03*
X39000Y-52000D03*
X39000Y-51000D03*
X39000Y-50000D03*
X39000Y-49000D03*
X39000Y-48000D03*
G54D15*
X67500Y-53500D03*
G54D13*
X67500Y-54500D03*
X67500Y-55500D03*
X67500Y-56500D03*
X71500Y-53500D03*
X71500Y-54500D03*
X71500Y-55500D03*
G54D15*
X71500Y-56500D03*
X69500Y-53500D03*
G54D13*
X69500Y-54500D03*
X69500Y-55500D03*
X69500Y-56500D03*
G54D14*
X53500Y-50500D03*
X41000Y-38000D03*
G54D12*
X39000Y-39900D03*
G54D13*
X39000Y-40900D03*
X39000Y-41900D03*
X39000Y-42900D03*
X39000Y-43900D03*
X39000Y-44900D03*
X39000Y-45900D03*
G54D16*
X40625Y-44000D03*
X41375Y-44000D03*
X40625Y-42500D03*
X41375Y-42500D03*
G54D17*
X39000Y-31990D03*
G54D18*
X39000Y-32990D03*
X39000Y-33990D03*
X39000Y-34990D03*
X39000Y-35990D03*
M02*
