M48
;DRILL file {Pcbnew (2012-01-19 BZR 3256)-stable} date 5/8/2013 11:14:18 PM
;FORMAT={-:-/ absolute / inch / decimal}
FMAT,2
INCH,TZ
T1C0.016
T2C0.032
T3C0.036
T4C0.040
T5C0.122
%
G90
G05
M72
T1
X3.500Y2.300
X3.500Y2.500
X3.500Y2.700
X3.500Y2.900
X3.500Y3.100
X3.500Y3.300
X3.500Y3.500
X3.500Y3.700
X3.500Y3.900
X3.500Y4.100
X3.500Y4.300
X3.500Y4.500
X3.500Y4.700
X3.500Y4.900
X3.500Y5.100
X3.500Y5.300
X3.500Y5.500
X3.500Y5.700
X3.700Y2.300
X3.700Y2.500
X3.700Y2.700
X3.700Y2.900
X3.700Y3.100
X3.700Y3.300
X3.700Y3.500
X3.700Y3.700
X3.700Y3.900
X3.700Y4.100
X3.700Y4.300
X3.700Y4.500
X3.700Y4.700
X3.700Y4.900
X3.700Y5.100
X3.700Y5.300
X3.700Y5.500
X3.700Y5.700
X3.900Y2.300
X4.100Y2.300
X4.325Y2.300
X4.325Y2.475
X4.325Y2.650
X4.325Y2.850
X4.325Y3.050
X4.500Y2.300
X4.500Y2.475
X4.500Y2.650
X4.500Y2.850
X4.500Y3.050
X4.675Y5.600
X4.690Y4.220
X4.700Y2.300
X4.700Y2.475
X4.700Y2.650
X4.700Y2.850
X4.700Y3.050
X4.700Y3.250
X4.700Y3.970
X4.700Y4.825
X4.700Y4.975
X4.750Y4.275
X4.800Y4.220
X4.950Y4.575
X4.975Y5.600
X5.090Y4.580
X5.090Y4.730
X5.110Y3.560
X5.110Y3.730
X5.200Y4.620
X5.300Y3.380
X5.300Y3.540
X5.300Y5.600
X5.300Y5.700
X5.400Y5.600
X5.400Y5.700
X5.410Y4.265
X5.475Y4.200
X5.500Y3.175
X5.500Y3.350
X5.500Y5.600
X5.500Y5.700
X5.575Y4.725
X5.600Y5.600
X5.600Y5.700
X5.625Y4.025
X5.625Y4.200
X5.675Y2.900
X5.675Y3.175
X5.675Y4.625
X5.700Y4.725
X5.700Y5.600
X5.700Y5.700
X5.750Y2.100
X5.750Y2.250
X5.750Y2.400
X5.800Y4.625
X5.800Y5.600
X5.800Y5.700
X5.875Y5.075
X5.900Y2.100
X5.900Y2.250
X5.900Y2.400
X5.900Y3.750
X5.900Y5.600
X5.900Y5.700
X5.925Y4.200
X5.925Y4.625
X5.950Y2.600
X5.950Y2.900
X5.975Y4.975
X6.000Y5.600
X6.000Y5.700
X6.025Y3.575
X6.025Y3.750
X6.075Y2.100
X6.075Y2.250
X6.075Y2.400
X6.100Y4.800
X6.100Y5.075
X6.100Y5.600
X6.100Y5.700
X6.125Y4.075
X6.125Y4.200
X6.150Y3.350
X6.150Y3.450
X6.150Y3.575
X6.225Y2.100
X6.225Y2.225
X6.250Y2.600
X6.375Y2.100
X6.375Y2.225
X6.425Y3.125
X6.525Y2.100
X6.525Y2.225
X6.550Y3.125
X6.550Y3.225
X6.675Y2.100
X6.675Y2.225
X6.675Y3.125
X6.675Y3.225
X6.825Y3.125
X6.975Y3.125
X7.125Y3.125
T2
X4.300Y3.300
X4.300Y3.400
X4.300Y3.500
X4.300Y3.600
X4.300Y3.700
X4.300Y3.800
X4.300Y3.900
X4.300Y4.000
X4.300Y4.100
X4.300Y4.200
X4.300Y4.300
X4.300Y4.400
X4.300Y4.500
X4.300Y4.600
X4.300Y4.700
X4.300Y4.800
X4.300Y4.900
X4.300Y5.000
X4.300Y5.100
X4.300Y5.200
X4.300Y5.300
X4.300Y5.400
X4.300Y5.500
X4.300Y5.600
X4.300Y5.700
X4.400Y3.300
X4.400Y3.400
X4.400Y3.500
X4.400Y3.600
X4.400Y3.700
X4.400Y3.800
X4.400Y3.900
X4.400Y4.000
X4.400Y4.100
X4.400Y4.200
X4.400Y4.300
X4.400Y4.400
X4.400Y4.500
X4.400Y4.600
X4.400Y4.700
X4.400Y4.800
X4.400Y4.900
X4.400Y5.000
X4.400Y5.100
X4.400Y5.200
X4.400Y5.300
X4.400Y5.400
X4.400Y5.500
X4.400Y5.600
X4.400Y5.700
X6.300Y3.300
X6.300Y3.400
X6.300Y3.500
X6.300Y3.600
X6.300Y3.700
X6.300Y3.800
X6.300Y3.900
X6.300Y4.000
X6.300Y4.100
X6.300Y4.200
X6.300Y4.300
X6.300Y4.400
X6.300Y4.500
X6.300Y4.600
X6.300Y4.700
X6.300Y4.800
X6.300Y4.900
X6.300Y5.000
X6.300Y5.100
X6.300Y5.200
X6.300Y5.300
X6.300Y5.400
X6.300Y5.500
X6.300Y5.600
X6.300Y5.700
X6.400Y3.300
X6.400Y3.400
X6.400Y3.500
X6.400Y3.600
X6.400Y3.700
X6.400Y3.800
X6.400Y3.900
X6.400Y4.000
X6.400Y4.100
X6.400Y4.200
X6.400Y4.300
X6.400Y4.400
X6.400Y4.500
X6.400Y4.600
X6.400Y4.700
X6.400Y4.800
X6.400Y4.900
X6.400Y5.000
X6.400Y5.100
X6.400Y5.200
X6.400Y5.300
X6.400Y5.400
X6.400Y5.500
X6.400Y5.600
X6.400Y5.700
T3
X3.900Y3.990
X3.900Y4.090
X3.900Y4.190
X3.900Y4.290
X3.900Y4.390
X3.900Y4.490
X3.900Y4.590
X3.900Y4.800
X3.900Y4.900
X3.900Y5.000
X3.900Y5.100
X3.900Y5.200
X3.900Y5.300
X3.900Y5.400
X3.900Y5.500
X3.900Y5.600
X3.900Y5.700
X6.750Y4.450
X6.750Y4.550
X6.750Y4.650
X6.750Y4.800
X6.750Y4.900
X6.750Y5.000
X6.750Y5.100
X6.750Y5.350
X6.750Y5.450
X6.750Y5.550
X6.750Y5.650
X6.850Y4.450
X6.850Y4.550
X6.850Y4.650
X6.850Y4.800
X6.850Y4.900
X6.850Y5.000
X6.850Y5.100
X6.950Y2.100
X6.950Y2.200
X6.950Y2.300
X6.950Y2.400
X6.950Y2.500
X6.950Y2.600
X6.950Y2.700
X6.950Y2.800
X6.950Y2.900
X6.950Y3.000
X6.950Y3.250
X6.950Y3.350
X6.950Y3.450
X6.950Y3.550
X6.950Y3.650
X6.950Y3.750
X6.950Y3.850
X6.950Y3.950
X6.950Y4.050
X6.950Y4.150
X6.950Y4.800
X6.950Y4.900
X6.950Y5.000
X6.950Y5.100
X6.950Y5.350
X6.950Y5.450
X6.950Y5.550
X6.950Y5.650
X7.050Y2.100
X7.050Y2.200
X7.050Y2.300
X7.050Y2.400
X7.050Y2.500
X7.050Y2.600
X7.050Y2.700
X7.050Y2.800
X7.050Y2.900
X7.050Y3.000
X7.050Y3.250
X7.050Y3.350
X7.050Y3.450
X7.050Y3.550
X7.050Y3.650
X7.050Y3.750
X7.050Y3.850
X7.050Y3.950
X7.050Y4.050
X7.050Y4.150
X7.050Y4.450
X7.050Y4.550
X7.050Y4.650
X7.050Y4.800
X7.050Y4.900
X7.050Y5.000
X7.050Y5.100
X7.150Y2.100
X7.150Y2.200
X7.150Y2.300
X7.150Y2.400
X7.150Y2.500
X7.150Y2.600
X7.150Y2.700
X7.150Y2.800
X7.150Y2.900
X7.150Y3.000
X7.150Y3.250
X7.150Y3.350
X7.150Y3.450
X7.150Y3.550
X7.150Y3.650
X7.150Y3.750
X7.150Y3.850
X7.150Y3.950
X7.150Y4.050
X7.150Y4.150
X7.150Y4.450
X7.150Y4.550
X7.150Y4.650
X7.150Y4.800
X7.150Y4.900
X7.150Y5.000
X7.150Y5.100
X7.150Y5.350
X7.150Y5.450
X7.150Y5.550
X7.150Y5.650
T4
X3.900Y3.199
X3.900Y3.299
X3.900Y3.399
X3.900Y3.499
X3.900Y3.599
T5
X4.100Y3.800
X5.350Y2.550
X5.350Y5.050
X6.600Y3.800
T0
M30
