<?xml version="1.0" encoding="UTF-8" standalone="no"?>
<!-- Created with Inkscape (http://www.inkscape.org/) -->

<svg
   xmlns:dc="http://purl.org/dc/elements/1.1/"
   xmlns:cc="http://creativecommons.org/ns#"
   xmlns:rdf="http://www.w3.org/1999/02/22-rdf-syntax-ns#"
   xmlns:svg="http://www.w3.org/2000/svg"
   xmlns="http://www.w3.org/2000/svg"
   xmlns:xlink="http://www.w3.org/1999/xlink"
   xmlns:sodipodi="http://sodipodi.sourceforge.net/DTD/sodipodi-0.dtd"
   xmlns:inkscape="http://www.inkscape.org/namespaces/inkscape"
   width="340"
   height="340"
   id="svg2"
   sodipodi:version="0.32"
   inkscape:version="0.48.2 r9819"
   sodipodi:docname="wind_compass.svg"
   inkscape:output_extension="org.inkscape.output.svg.inkscape"
   version="1.0">
  <defs
     id="defs4">
    <linearGradient
       id="linearGradient4148">
      <stop
         style="stop-color:#2a4fd4;stop-opacity:1;"
         offset="0"
         id="stop4150" />
      <stop
         style="stop-color:#8296e0;stop-opacity:1;"
         offset="1"
         id="stop4152" />
    </linearGradient>
    <linearGradient
       id="linearGradient4130">
      <stop
         style="stop-color:#405c9c;stop-opacity:1;"
         offset="0"
         id="stop4132" />
      <stop
         style="stop-color:#4c7ff4;stop-opacity:1;"
         offset="1"
         id="stop4134" />
    </linearGradient>
    <linearGradient
       inkscape:collect="always"
       id="linearGradient4122">
      <stop
         style="stop-color:#4c7ff4;stop-opacity:1;"
         offset="0"
         id="stop4124" />
      <stop
         style="stop-color:#4c7ff4;stop-opacity:0;"
         offset="1"
         id="stop4126" />
    </linearGradient>
    <linearGradient
       inkscape:collect="always"
       xlink:href="#linearGradient4130"
       id="linearGradient4166"
       gradientUnits="userSpaceOnUse"
       gradientTransform="translate(-302.00003,-83.997175)"
       x1="-820.5625"
       y1="99.78125"
       x2="-441.4375"
       y2="456.35938" />
    <linearGradient
       inkscape:collect="always"
       xlink:href="#linearGradient4122"
       id="linearGradient4168"
       gradientUnits="userSpaceOnUse"
       x1="-810.48193"
       y1="326.5834"
       x2="-408.28253"
       y2="-52.910587" />
    <radialGradient
       inkscape:collect="always"
       xlink:href="#linearGradient4148"
       id="radialGradient5169"
       gradientUnits="userSpaceOnUse"
       cx="194.28571"
       cy="355.21933"
       fx="194.28571"
       fy="355.21933"
       r="302.43463" />
  </defs>
  <sodipodi:namedview
     id="base"
     pagecolor="#ffffff"
     bordercolor="#666666"
     borderopacity="1.0"
     inkscape:pageopacity="0.0"
     inkscape:pageshadow="2"
     inkscape:zoom="0.8117149"
     inkscape:cx="40.267621"
     inkscape:cy="61.213754"
     inkscape:document-units="px"
     inkscape:current-layer="layer6"
     showguides="true"
     inkscape:guide-bbox="true"
     inkscape:window-width="1152"
     inkscape:window-height="756"
     inkscape:window-x="142"
     inkscape:window-y="0"
     inkscape:showpageshadow="false"
     showgrid="false"
     inkscape:window-maximized="0" />
  <metadata
     id="metadata7">
    <rdf:RDF>
      <cc:Work
         rdf:about="">
        <dc:format>image/svg+xml</dc:format>
        <dc:type
           rdf:resource="http://purl.org/dc/dcmitype/StillImage" />
      </cc:Work>
    </rdf:RDF>
  </metadata>
  <g
     inkscape:label="Capa 1"
     inkscape:groupmode="layer"
     id="layer1"
     transform="translate(-63.022938,-329.65394)"
     style="display:inline">
    <g
       id="g3488">
      <g
         inkscape:export-ydpi="149.98282"
         inkscape:export-xdpi="149.98282"
         transform="translate(33.28571,149.85717)"
         id="g4160">
        <path
           sodipodi:type="arc"
           style="fill:none;stroke:#121217;stroke-width:5.86233473;stroke-miterlimit:4;stroke-opacity:1;stroke-dasharray:none"
           id="path2167"
           sodipodi:cx="71"
           sodipodi:cy="339.36218"
           sodipodi:rx="189"
           sodipodi:ry="189"
           d="m 260,339.36218 c 0,104.38182 -84.61818,189 -189,189 -104.381818,0 -189,-84.61818 -189,-189 0,-104.38182 84.618182,-189 189,-189 104.38182,0 189,84.61818 189,189 z"
           transform="matrix(0.8633229,0,0,0.8633229,137.70407,56.383021)" />
      </g>
      <path
         style="fill:#f9f9f9;opacity:0.50862069"
         d="m 155.70224,328.71824 c -12.40699,-0.98905 -29.0284,-4.65429 -41.48772,-9.14861 C 63.533755,301.28806 24.186033,255.65091 12.530038,201.63166 9.4217475,187.2264 9.4452263,152.45869 12.57311,137.85006 22.016315,93.746044 49.129538,55.415808 86.958353,32.690893 166.15051,-14.882234 269.27624,14.569008 311.20692,96.733091 c 11.73276,22.990589 16.24846,40.580129 17.21986,67.074769 1.18986,32.45288 -5.75418,60.55573 -21.38254,86.536 -32.19873,53.52659 -89.67303,83.29037 -151.342,78.37438 l 0,0 z"
         id="path3134"
         inkscape:connector-curvature="0"
         transform="translate(63.022938,329.65394)" />
    </g>
  </g>
  <g
     inkscape:groupmode="layer"
     id="layer6"
     inkscape:label="Needle"
     style="display:inline"
     transform="translate(0,-264.86925)">
    <rect
       style="fill:#0000ff;fill-rule:evenodd;stroke:#000000;stroke-width:0.85537124px;stroke-linecap:butt;stroke-linejoin:miter;stroke-opacity:1;display:inline"
       id="rect3077"
       width="9.1446285"
       height="307.22516"
       x="161.42769"
       y="274.00681" />
    <rect
       style="fill:#0000ff"
       id="rect3910"
       width="14.617332"
       height="37.721256"
       x="522.70367"
       y="285.89316"
       transform="matrix(0.73167111,0.68165783,-0.69735008,0.71673068,0,0)"
       ry="0"
       inkscape:transform-center-x="-29.252426"
       inkscape:transform-center-y="-34.460421" />
    <rect
       style="fill:#ff00ff"
       id="rect3934"
       width="14.827321"
       height="37.532921"
       x="-318.02277"
       y="485.31931"
       transform="matrix(0.66520085,-0.74666447,0.72301471,0.69083263,0,0)" />
    <path
       style="fill:#ff00ff"
       d="m 169.78312,315.53816 -7.05871,-7.13313 0,-149.33939 0,-149.33938 3.69588,0 3.69588,0 0,150.56498 0,150.56499 6.78662,-6.70232 6.78662,-6.70232 4.59303,4.59303 4.59304,4.59304 -8.01682,8.01682 -8.01683,8.01683 -7.05871,-7.13315 0,0 z"
       id="path3947"
       inkscape:connector-curvature="0"
       transform="translate(0,264.86925)" />
  </g>
</svg>
